<?xml version="1.0" encoding="UTF-8" standalone="no"?>
<svg
   xmlns:dc="http://purl.org/dc/elements/1.1/"
   xmlns:cc="http://creativecommons.org/ns#"
   xmlns:rdf="http://www.w3.org/1999/02/22-rdf-syntax-ns#"
   xmlns:svg="http://www.w3.org/2000/svg"
   xmlns="http://www.w3.org/2000/svg"
   xmlns:xlink="http://www.w3.org/1999/xlink"
   xmlns:sodipodi="http://sodipodi.sourceforge.net/DTD/sodipodi-0.dtd"
   xmlns:inkscape="http://www.inkscape.org/namespaces/inkscape"
   id="svg13097"
   height="334.5351"
   width="287.992"
   version="1.1"
   inkscape:version="0.48.4 r9939"
   sodipodi:docname="generic-game-lcd-black.svg">
  <sodipodi:namedview
     pagecolor="#ffffff"
     bordercolor="#666666"
     borderopacity="1"
     objecttolerance="10"
     gridtolerance="10"
     guidetolerance="10"
     inkscape:pageopacity="0"
     inkscape:pageshadow="2"
     inkscape:window-width="698"
     inkscape:window-height="480"
     id="namedview39090"
     showgrid="false"
     inkscape:zoom="0.25397099"
     inkscape:cx="143.99449"
     inkscape:cy="167.28077"
     inkscape:window-x="0"
     inkscape:window-y="0"
     inkscape:window-maximized="0"
     inkscape:current-layer="svg13097"
     fit-margin-top="0"
     fit-margin-left="0"
     fit-margin-right="0"
     fit-margin-bottom="0" />
  <defs
     id="defs13099">
    <filter
       id="filter5890"
       height="1.2713"
       width="1.1436"
       color-interpolation-filters="sRGB"
       y="-0.13564999"
       x="-0.071815997">
      <feGaussianBlur
         id="feGaussianBlur5892"
         stdDeviation="19.771066" />
    </filter>
    <linearGradient
       id="linearGradient5858">
      <stop
         id="stop5860"
         offset="0" />
      <stop
         id="stop5862"
         stop-opacity="0"
         offset="1" />
    </linearGradient>
    <linearGradient
       id="linearGradient4937">
      <stop
         id="stop4939"
         stop-color="#fff"
         offset="0" />
      <stop
         id="stop4941"
         stop-color="#fff"
         stop-opacity="0"
         offset="1" />
    </linearGradient>
    <linearGradient
       id="linearGradient12106"
       y2="-1522.4"
       xlink:href="#linearGradient4937"
       gradientUnits="userSpaceOnUse"
       x2="-398.92999"
       gradientTransform="matrix(2.7777778,0,0,2.7777778,758.19502,4705.0182)"
       y1="-1837"
       x1="349.41" />
    <filter
       id="filter4991"
       color-interpolation-filters="sRGB">
      <feGaussianBlur
         id="feGaussianBlur4993"
         stdDeviation="1.1978268" />
    </filter>
    <linearGradient
       id="linearGradient5640">
      <stop
         id="stop5642"
         stop-color="#fff"
         stop-opacity=".089286"
         offset="0" />
      <stop
         id="stop5644"
         stop-color="#fff"
         offset="1" />
    </linearGradient>
    <linearGradient
       id="linearGradient3070"
       y2="-1450.1"
       gradientUnits="userSpaceOnUse"
       x2="369.95001"
       gradientTransform="matrix(2.9408333,0.15615,0,1.3818611,674.33929,3830.4122)"
       y1="-1356.3"
       x1="355.10999">
      <stop
         id="stop5849"
         stop-color="#fff"
         offset="0" />
      <stop
         id="stop5851"
         stop-color="#fff"
         stop-opacity="0"
         offset="1" />
    </linearGradient>
    <linearGradient
       id="linearGradient3073"
       y2="-1315.4"
       xlink:href="#linearGradient5858"
       gradientUnits="userSpaceOnUse"
       x2="104.57"
       gradientTransform="matrix(2.9408333,0,0,2.9408333,1205.867,5834.301)"
       y1="-1313.7"
       x1="211.81" />
    <linearGradient
       id="linearGradient3076"
       y2="-1256.4"
       gradientUnits="userSpaceOnUse"
       x2="150.61"
       gradientTransform="matrix(2.9408333,0,0,2.9408333,688.89484,6045.1344)"
       y1="-1221.3"
       x1="106.71">
      <stop
         id="stop5838"
         stop-color="#fff"
         offset="0" />
      <stop
         id="stop5840"
         stop-color="#fff"
         stop-opacity="0"
         offset="1" />
    </linearGradient>
    <linearGradient
       id="linearGradient3079"
       y2="-1315.4"
       xlink:href="#linearGradient5858"
       gradientUnits="userSpaceOnUse"
       x2="104.57"
       gradientTransform="matrix(2.9408333,0,0,2.9408333,688.89484,6045.1344)"
       y1="-1313.7"
       x1="211.81" />
    <linearGradient
       id="linearGradient3855"
       y2="-1251.9"
       xlink:href="#linearGradient5640"
       gradientUnits="userSpaceOnUse"
       x2="259.34"
       gradientTransform="matrix(-2.0286945,-1.1414722,1.1093056,-2.0875278,3417.506,-567.30997)"
       y1="-1260"
       x1="261.13" />
    <linearGradient
       id="linearGradient3858"
       y2="-1248.9"
       xlink:href="#linearGradient5640"
       gradientUnits="userSpaceOnUse"
       x2="259.54999"
       gradientTransform="matrix(2.0286945,1.1414722,-1.1093056,2.0875278,-451.9385,4102.6344)"
       y1="-1257.8"
       x1="259.63" />
    <linearGradient
       id="linearGradient3866"
       y2="-1559.7"
       xlink:href="#linearGradient4937"
       gradientUnits="userSpaceOnUse"
       x2="-279.12"
       gradientTransform="matrix(2.9408333,0,0,2.9408333,1061.367,7035.6899)"
       y1="-1913.6"
       x1="490.82999" />
    <linearGradient
       id="linearGradient3869"
       y2="-1640.2"
       xlink:href="#linearGradient4937"
       gradientUnits="userSpaceOnUse"
       x2="-116.09"
       gradientTransform="matrix(2.9408333,0,0,2.9408333,1035.367,6940.4122)"
       y1="-1858.6"
       x1="412.26999" />
    <linearGradient
       id="linearGradient3872"
       y2="-1093.2"
       xlink:href="#linearGradient4937"
       gradientUnits="userSpaceOnUse"
       x2="-68.875"
       gradientTransform="matrix(2.9408333,0,0,2.9408333,700.42262,5490.4122)"
       y1="-1999.4"
       x1="-351.07999" />
    <linearGradient
       id="linearGradient3875"
       y2="-1524.2"
       gradientUnits="userSpaceOnUse"
       x2="178.63"
       gradientTransform="matrix(2.9408333,0,0,2.9408333,700.42262,5490.4122)"
       y1="-1359.2"
       x1="-271.60999">
      <stop
         id="stop4951"
         stop-color="#fff"
         offset="0" />
      <stop
         id="stop4953"
         stop-color="#fff"
         stop-opacity="0"
         offset="1" />
    </linearGradient>
    <linearGradient
       id="linearGradient3878"
       y2="-1518.5"
       gradientUnits="userSpaceOnUse"
       x2="70.346001"
       gradientTransform="matrix(2.9408333,0,0,2.9408333,700.42262,5490.4122)"
       y1="-1531.2"
       x1="473.76999">
      <stop
         id="stop4959"
         stop-color="#999"
         offset="0" />
      <stop
         id="stop4961"
         stop-opacity="0"
         offset="1" />
    </linearGradient>
    <linearGradient
       id="linearGradient3882"
       y2="-1618"
       xlink:href="#linearGradient4937"
       gradientUnits="userSpaceOnUse"
       x2="-257.76001"
       gradientTransform="matrix(2.9408333,0,0,2.9408333,700.42262,5490.4122)"
       y1="-1858.6"
       x1="412.26999" />
  </defs>
  <g
     id="layer1"
     transform="matrix(0.36,0,0,0.36,-3.6621436,-43.848409)">
    <path
       id="rect5871"
       d="m -183.33,-1317 486.11,-216.67 171.39,39.321 -96.752,64.083 94.116,35.552 5.8576,41.834 -188.8,-18.536 -78.201,46.689 -10.818,140.85 -80.136,-8.1269 -29.581,-65.606 -114.86,51.718 z"
       transform="matrix(1.0587,0,0,1.0587,254.5,2254.2)"
       inkscape:connector-curvature="0"
       style="opacity:0.79204;fill:#333333;filter:url(#filter5890)" />
    <path
       id="path5827"
       d="m 520.67,785.58 222.79,23.87 c 8.4138,1.5721 9.6947,-1.0494 7.5561,-6.279 0,0 -8.6373,-30.722 -20.692,-38.26 -21.484,-13.435 -157.67,-45.876 -157.67,-45.876 z"
       inkscape:connector-curvature="0" />
    <path
       id="path5831"
       d="m 520.67,781.92 218.78,24.423 c 8.2625,1.6085 9.5204,-1.0738 7.4202,-6.4244 0,0 -8.482,-31.434 -20.32,-39.147 -21.09,-13.74 -154.82,-46.94 -154.82,-46.94 z"
       inkscape:connector-curvature="0" />
    <path
       id="rect5823"
       d="m 462.45,820.93 0.97479,155.96 c -0.0887,8.8596 -0.75904,10.539 -10.338,11.369 -16.603,1.2169 -48.715,2.1327 -63.42,-7.2099 -25.288,-16.065 -43.67,-106.06 -43.67,-106.06 z"
       inkscape:connector-curvature="0" />
    <path
       id="path5829"
       d="m 461.45,820.93 0.93162,152.11 c -0.0847,8.6404 -0.72544,10.278 -9.88,11.087 -15.868,1.1868 -46.558,2.08 -60.613,-7.0314 -24.17,-15.68 -41.74,-103.44 -41.74,-103.44 z"
       inkscape:connector-curvature="0" />
    <path
       id="rect5855"
       d="m 352.33,858.4 108.03,-47.054 -1.0806,47.548 c 0.88679,10.853 -3.0643,21.934 -9.6039,18.84 -19.3,-9.074 -63.771,-15.967 -84.662,12.452 -2.3405,2.9022 -5.4734,1.6014 -6.4882,-2.4532 z"
       style="fill:url(#linearGradient3079)"
       inkscape:connector-curvature="0" />
    <path
       id="path5834"
       d="m 374.73,862.84 c 26.132,93.995 36.711,88.175 82.455,103.44 -0.0769,8.2568 -4.3343,9.8218 -12.641,10.595 -14.398,1.1341 -38.569,1.9876 -51.321,-6.7192 -21.929,-14.972 -37.87,-98.839 -37.87,-98.839 z"
       style="fill:url(#linearGradient3076)"
       inkscape:connector-curvature="0" />
    <path
       id="path5867"
       d="m 538.45,782.49 86.704,-52.201 29.799,7.1111 c 7.5038,2.0301 10.676,5.7746 -0.78121,9.6493 -17.909,6.0567 -42.817,4.6196 -61.87,28.995 -2.3405,2.9022 -5.1058,7.4832 -10.9,8.5752 z"
       style="fill:url(#linearGradient3073)"
       inkscape:connector-curvature="0" />
    <path
       id="path5845"
       d="m 515.44,779.24 218.78,23.092 c 8.2625,1.1947 9.5204,10e-4 7.4202,-2.6247 0,0 -8.482,-15.22 -20.32,-19.473 -21.098,-7.5792 -154.83,-30.276 -154.83,-30.276 z"
       style="fill:url(#linearGradient3070)"
       inkscape:connector-curvature="0" />
    <path
       id="path4975"
       d="M 179.87,773.24 709.28,514.81 c 9.8777,-4.1591 12.249,-1.2928 22.127,-0.77297 6.1852,-0.30174 7.5472,-0.31349 8.613,5.2477 l 20.35,103.86 c -151.18,158.15 -317.19,221.79 -539.23,305.92 -33.56,-11.81 -31.62,-30.43 -51.11,-129.73 -2.6747,-16.159 -4.6552,-20.556 9.8346,-26.093 z"
       inkscape:connector-curvature="0" />
    <path
       id="path4165"
       d="m 90.168,332.45 545.59,-208.43 c 9.8778,-4.1591 12.249,-1.2928 22.127,-0.77297 6.1852,-0.30173 5.4676,1.766 6.5335,7.3272 l 88.666,456.11 c -159.5,144.64 -356.23,221.1 -542.24,308.92 l -23.84,-10.74 -106.68,-526.31 c -2.6747,-16.159 -4.6552,-20.556 9.8346,-26.093 z"
       inkscape:connector-curvature="0" />
    <path
       id="rect14352"
       d="M 104.55,351.44 661.05,133.9 744.79,573.64 209.67,874.62 z"
       inkscape:connector-curvature="0" />
    <path
       id="path4167"
       d="m 88.656,335.65 389.39,-147.68 171.25,-56.96 -527.98,209.41 c -10.293,1.838 -32.665,-4.7617 -32.665,-4.7617 z"
       style="fill:url(#linearGradient3882)"
       inkscape:connector-curvature="0" />
    <path
       id="path4973"
       d="M 129.47,341.7 647.1,136.46 c 9.0095,-4.6171 11.951,-3.6674 13.925,6.1463 l 88.138,440.41 c -122.54,106.4 -202.7,161.38 -533.7,303.04 l -105.3,-506.69 c -5.6734,-27.891 -5.2848,-27.775 19.312,-37.678 z"
       inkscape:connector-curvature="0"
       style="fill:#090909;stroke:#000000;stroke-width:8.82277775" />
    <path
       id="path4945"
       d="M 129.22,357.1 653.05,148.46 735.03,568.06 229.94,849.67 z"
       inkscape:connector-curvature="0"
       style="stroke:url(#linearGradient3878);stroke-width:5.88166618" />
    <path
       id="path4947"
       d="M 139.14,360.73 344.98,282.77 544.04,667.5 236.22,835.87 z"
       style="fill:url(#linearGradient3875)"
       inkscape:connector-curvature="0" />
    <path
       id="path4965"
       d="M 188.34,882.22 82.08,351.17 l 16.463,18.5 c 2.5156,2.9169 7.577,13.145 8.3617,17.704 l 103.88,512.6 z"
       style="fill:url(#linearGradient3872)"
       inkscape:connector-curvature="0" />
    <path
       id="path4969"
       d="m 212.05,865.65 c 0,0 87.586,-65.628 187.4,-91.622 56.598,-11.7 99.195,-26.337 139.94,-41.257 -81.858,47.922 -200,99.715 -328.37,157.96 z"
       style="fill:url(#linearGradient3869)"
       inkscape:connector-curvature="0" />
    <path
       id="path4977"
       d="M 214.13,899.96 C 362.82,832.375 466,781.3 555.42,732.44 c 11.331,-2.2375 25.75,25.42 22.445,33.606 -84.977,52.081 -213.52,109.07 -357.48,159 z"
       style="fill:url(#linearGradient3866)"
       inkscape:connector-curvature="0" />
    <path
       id="path4981"
       d="m -43.447,-1091.9 c 134.88,-63.836 369.69,-161.08 508.55,-290 -119.35,121.71 -368.13,230.74 -508.55,290 z"
       transform="matrix(1.0587,0,0,1.0587,258.65,2054.5)"
       style="fill:url(#linearGradient12106);filter:url(#filter4991)"
       inkscape:connector-curvature="0" />
    <path
       id="path5635"
       d="m 276.39,-1262.4 a 13.542,10.764 0 1 1 -27.083,0 13.542,10.764 0 1 1 27.083,0 z"
       transform="matrix(0.77117,0.42169,-0.42169,0.77117,-194.66,1577.1)"
       inkscape:connector-curvature="0"
       style="stroke:#280000;stroke-width:8.33333302;stroke-linecap:square" />
    <g
       id="g5723"
       transform="matrix(0.58578,0.057129,0.04076,0.59625,437.16,1453.3)"
       style="fill:#666666">
      <path
         id="path5713"
         style="text-indent:0;text-transform:none;block-progression:tb;color:#000000"
         d="m 257.89,-1270.7 c -2.306,2.7563 -0.13324,9.8024 4.3772,12.269 4.5104,2.4663 10.101,1.3226 12.32,-2.7358 2.2192,-4.0584 -0.12718,-9.1948 -4.6376,-11.661 -2.5972,-1.4202 -5.5527,-1.7585 -8.0163,-1.015 l 2.3302,2.2999 c 1.4676,-0.2786 2.8833,0.2276 4.5925,1.1616 3.3092,1.8095 4.1171,5.53 2.9375,7.6871 -1.1796,2.1573 -4.4415,3.3881 -7.7385,1.5565 -3.5696,-1.9831 -4.0303,-5.877 -3.4584,-7.5135 z"
         inkscape:connector-curvature="0" />
      <path
         id="rect5720"
         d="m 257.38,-1272.4 c 0.52598,-1.034 1.7021,-1.7437 2.691,-2.0833 l 7.8993,7.3784 c -0.71887,0.4964 -1.4964,0.9341 -1.9965,1.6494 z"
         inkscape:connector-curvature="0" />
    </g>
    <path
       id="path5638"
       d="m 550.65,721.24 c -3.6608,4.1 -10.019,4.7541 -15.383,1.5136 -6.0332,-3.6444 -8.4603,-10.692 -5.6832,-14.757 -3.2259,6.1128 7.5954,21.113 21.067,13.243 z"
       style="fill:url(#linearGradient3858)"
       inkscape:connector-curvature="0" />
    <path
       id="path5708"
       d="m 529.99,707.41 c 2.8809,-4.4899 10.333,-5.2359 15.697,-1.9954 6.0332,3.6443 8.9644,10.876 4.7261,16.066 -0.10966,-4.3555 -12.643,-16.545 -20.423,-14.07 z"
       style="fill:url(#linearGradient3855)"
       inkscape:connector-curvature="0" />
  </g>
  <metadata
     id="metadata39088">
    <rdf:RDF>
      <cc:Work>
        <dc:format>image/svg+xml</dc:format>
        <dc:type
           rdf:resource="http://purl.org/dc/dcmitype/StillImage" />
        <cc:license
           rdf:resource="http://creativecommons.org/licenses/publicdomain/" />
        <dc:publisher>
          <cc:Agent
             rdf:about="http://openclipart.org/">
            <dc:title>Openclipart</dc:title>
          </cc:Agent>
        </dc:publisher>
      </cc:Work>
      <cc:License
         rdf:about="http://creativecommons.org/licenses/publicdomain/">
        <cc:permits
           rdf:resource="http://creativecommons.org/ns#Reproduction" />
        <cc:permits
           rdf:resource="http://creativecommons.org/ns#Distribution" />
        <cc:permits
           rdf:resource="http://creativecommons.org/ns#DerivativeWorks" />
      </cc:License>
    </rdf:RDF>
  </metadata>
</svg>
