<?xml version="1.0" encoding="UTF-8" standalone="no"?>
<svg
   xmlns:dc="http://purl.org/dc/elements/1.1/"
   xmlns:cc="http://creativecommons.org/ns#"
   xmlns:rdf="http://www.w3.org/1999/02/22-rdf-syntax-ns#"
   xmlns:svg="http://www.w3.org/2000/svg"
   xmlns="http://www.w3.org/2000/svg"
   xmlns:sodipodi="http://sodipodi.sourceforge.net/DTD/sodipodi-0.dtd"
   xmlns:inkscape="http://www.inkscape.org/namespaces/inkscape"
   version="1.1"
   width="444.98721"
   height="282.48166"
   id="svg2"
   sodipodi:version="0.32"
   inkscape:version="0.48.4 r9939"
   sodipodi:docname="Blank_US.svg">
  <metadata
     id="metadata352">
    <rdf:RDF>
      <cc:Work
         rdf:about="">
        <dc:format>image/svg+xml</dc:format>
        <dc:type
           rdf:resource="http://purl.org/dc/dcmitype/StillImage" />
        <dc:description>The font used in this map is &quot;Roadgeek 2005 Series 4B&quot;, avaliable from http://www.triskele.com/fonts</dc:description>
        <dc:title></dc:title>
      </cc:Work>
    </rdf:RDF>
  </metadata>
  <defs
     id="defs350" />
  <sodipodi:namedview
     inkscape:window-height="796"
     inkscape:window-width="1280"
     inkscape:pageshadow="2"
     inkscape:pageopacity="0.0"
     borderopacity="1.0"
     bordercolor="#666666"
     pagecolor="#ffffff"
     id="base"
     inkscape:zoom="0.61808873"
     inkscape:cx="393.41514"
     inkscape:cy="176.62163"
     inkscape:window-x="0"
     inkscape:window-y="25"
     inkscape:current-layer="svg2"
     fill="#d3d3d3"
     showguides="true"
     inkscape:guide-bbox="true"
     showgrid="false"
     inkscape:window-maximized="0"
     fit-margin-top="0"
     fit-margin-left="0"
     fit-margin-right="0"
     fit-margin-bottom="0" />
  <path
     inkscape:connector-curvature="0"
     style="fill:#d3d3d3;opacity:0.5"
     id="HI"
     d="m 111.70862,246.2149 0.93117,-1.70715 1.08636,-0.15519 0.1552,0.38799 -1.00877,1.47435 -1.16396,0 z m 4.88864,-1.78474 2.9487,1.24155 1.00877,-0.15519 0.77597,-1.86234 -0.31039,-1.62954 -2.01753,-0.23279 -1.93994,0.85357 -0.46558,1.78474 z m 14.7435,4.81104 1.78474,2.63831 1.16396,-0.1552 0.54318,-0.23279 0.69838,0.62078 1.78474,-0.0776 0.46559,-0.69837 -1.39676,-0.85358 -0.93117,-1.78474 -1.00877,-1.70714 -2.7935,1.39676 -0.31039,0.85357 z m 9.69968,4.26785 0.62077,-0.93117 2.25033,0.46559 0.31039,-0.23279 2.9487,0.31038 -0.1552,0.62078 -1.24156,0.69838 -2.09512,-0.1552 -2.63831,-0.77597 z m 2.56071,2.48312 0.93117,1.86234 1.47435,-0.54319 0.15519,-0.77597 -0.77597,-1.00877 -1.78474,-0.15519 0,0.62078 z m 3.33668,-0.54319 1.08637,-1.39675 2.25032,1.16396 2.09513,0.54319 2.09513,1.31915 0,0.93117 -1.70714,0.85357 -2.32792,0.46559 -1.16396,-0.69838 -2.32793,-3.1815 z m 7.99254,7.44935 0.77597,-0.62077 1.62955,0.77597 3.64707,1.70714 1.62955,1.00877 0.77597,1.16396 0.93117,2.09513 1.93993,1.24156 -0.15519,0.62078 -1.86234,1.55194 -2.01753,0.69838 -0.69837,-0.31039 -1.47436,0.85357 -1.16396,1.55195 -1.08636,1.39675 -0.85357,-0.0776 -1.70714,-1.24155 -0.1552,-2.17273 0.31039,-1.16396 -0.77597,-2.71591 -1.00877,-0.85357 -0.0776,-1.24156 1.08637,-0.46558 1.00876,-1.47435 0.23279,-0.46559 -0.77597,-0.85357 -0.15519,-1.00877 z" />
  <path
     inkscape:connector-curvature="0"
     style="fill:#d3d3d3;opacity:0.5"
     id="AK"
     d="m 75.703438,214.71036 -0.155194,40.97142 0.77597,0.46558 1.474354,0.0776 0.698373,-0.54318 1.241557,0 0.0776,1.39675 3.336687,3.25909 0.232791,1.24156 1.629543,-0.93117 0.310393,-0.0776 0.155194,-1.47435 0.698373,-0.77597 0.543184,-0.0776 0.93117,-0.69838 1.474348,1.00877 0.310393,1.39676 0.931165,0.54318 0.543184,1.16396 1.862338,0.85357 1.629543,2.8711 1.319154,1.86234 1.086363,1.31916 0.698379,1.78473 2.405517,0.85357 2.483121,1.00877 0.46558,2.09513 0.23279,1.47435 -0.46558,1.62955 -0.85357,1.08636 -0.77598,-0.38799 -0.69837,-1.47435 -1.31916,-0.69837 -0.853567,-0.54319 -0.38799,0.38799 0.698378,1.31916 0.0776,1.78474 -0.543184,0.23279 -0.931165,-0.93117 -1.008766,-0.62078 0.232791,0.77598 0.620776,0.85357 -0.387985,0.38798 c 0,0 -0.387985,-0.15519 -0.620776,-0.46558 -0.232796,-0.31039 -1.008766,-1.62955 -1.008766,-1.62955 l -0.465587,-1.08636 c 0,0 -0.155194,0.62078 -0.465582,0.46558 -0.310394,-0.15519 -0.620782,-0.69837 -0.620782,-0.69837 l 0.853573,-0.93117 -0.698379,-0.69838 0,-2.40552 -0.387985,0 -0.387985,1.62955 -0.543184,0.23279 -0.465582,-1.78474 -0.310393,-1.78474 -0.387985,-0.23279 0.155194,2.71591 0,0.54318 -0.698378,-0.62078 -1.70714,-2.8711 -1.008766,-0.23279 -0.310388,-1.78474 -0.775976,-1.39676 -0.775975,-0.54318 0,-1.08636 1.008767,-0.62078 -0.232792,-0.15519 -1.241557,0.31038 -1.629547,-1.16396 -1.241558,-1.39675 -2.32792,-1.24156 -1.939936,-1.24156 0.620781,-1.55194 0,-0.77598 -0.853572,0.77598 -1.396751,0.54318 -1.784742,-0.54318 -2.715911,-1.16396 -2.638309,0 -0.310388,0.23279 -3.103896,-1.86234 -1.008766,-0.15519 -1.319154,-2.79351 -1.707145,0.15519 -1.707144,0.69838 0.232796,2.17273 0.543179,-1.39676 0.465587,0.1552 -0.698378,2.09513 1.551945,-1.31916 0.310393,0.77597 -1.862338,2.09513 -0.620781,-0.15519 -0.232791,-0.93117 -0.620776,-0.38798 -0.620782,0.54318 -1.319154,-0.85357 -1.474353,1.00876 -0.853568,1.00877 -1.629547,1.00877 -2.250324,-0.0776 -0.232791,-1.00876 1.784737,-0.31039 0,-0.62078 -1.086364,-0.31039 0.465587,-1.16396 1.086364,-1.86233 0,-0.85358 0.0776,-0.38799 2.095129,-1.08636 0.465583,0.62078 1.319159,0 -0.620781,-1.24156 -1.784742,-0.15519 -2.405517,1.31916 -1.163961,1.62954 -0.853572,1.24156 -0.543179,1.08636 -2.017533,0.69838 -1.474353,1.24155 -0.155194,0.77598 1.086363,0.46559 0.38799,1.00876 -1.319159,1.55195 -3.103891,2.01753 -3.724679,2.01753 -1.008766,0.54318 -2.560713,0.54319 -2.560716,1.08636 0.853572,0.62078 -0.698378,0.69837 -0.232792,0.54318 -1.319154,-0.46558 -1.551945,0.0776 -0.38799,1.08636 -0.465583,0 0.155194,-1.16396 -1.707144,0.62078 -1.396751,0.46558 -1.629545,-0.62078 -1.396753,0.93117 -1.551948,0 -1.008766,0.62078 -0.775974,0.38799 -1.008766,-0.1552 -1.241558,-0.54317 -1.086363,0.31038 -0.465584,0.46559 -0.775975,-0.54318 0,-0.93117 1.474351,-0.62078 3.026298,0.31039 2.095129,-0.77598 1.008766,-1.00876 1.396753,-0.31039 0.853571,-0.38799 1.319156,0.0776 0.775974,0.62078 0.465582,-0.1552 1.086363,-1.31915 1.474354,-0.46559 1.629542,-0.31039 0.620781,-0.15519 0.310388,0.23279 0.387991,0 0.620776,-1.78474 1.939935,-0.69837 0.93117,-1.78474 1.086364,-2.17273 0.775975,-0.69838 0.155194,-1.24156 -0.775975,0.62078 -1.629549,0.31039 -0.310388,-1.16396 -0.620776,-0.15519 -0.465587,0.46558 -0.0776,1.39676 -0.698378,-0.0776 -0.698373,-2.7935 -0.620782,0.62078 -0.543179,-0.23279 -0.155194,-0.93117 -1.939935,0.0776 -1.008767,0.54319 -1.241557,-0.1552 0.698373,-0.69837 0.232791,-1.24156 -0.310388,-0.93117 0.698378,-0.46558 0.620777,-0.0776 -0.310388,-0.85357 0,-2.09513 -0.465583,-0.46559 -0.38799,0.69838 -2.948699,0 -0.698376,-0.62078 -0.310389,-1.86233 -1.008767,-1.70715 0,-0.46558 1.008767,-0.38799 0.0776,-1.00877 0.543181,-0.54318 -0.387986,-0.23279 -0.62078,0.23279 -0.543181,-1.31915 0.465584,-2.40552 2.172727,-1.55195 1.241556,-0.77597 0.931169,-1.78474 1.31916,-0.62078 1.241557,0.54318 0.155194,1.16396 1.16396,-0.1552 1.551946,-1.16396 0.775975,0.3104 0.465582,0.31038 0.775975,0 1.086365,-0.62078 0.38799,-2.09513 c 0,0 0.155194,-1.39675 0.465582,-1.62954 0.310388,-0.23279 0.465582,-0.46558 0.465582,-0.46558 l -0.543179,-0.93117 -1.241558,0.38798 -1.551951,0.38799 -0.931169,-0.23279 -1.70714,-0.85357 -2.405517,-0.0776 -1.707145,-1.78474 0.232791,-1.86234 0.310393,-1.16396 -1.008766,-0.85357 -0.93117,-1.78474 0.232792,-0.38799 3.25909,-0.23279 1.008766,0 0.465582,0.46559 0.310393,0 -0.0776,-0.77598 1.862334,-0.31039 1.241557,0.1552 0.698378,0.54318 -0.698378,1.00877 -0.232791,0.69837 1.319159,0.77598 2.405519,0.85357 0.853572,-0.46558 -1.086363,-2.09513 -0.465587,-1.55195 0.465587,-0.38799 -1.629547,-0.93117 -0.232792,-0.54318 0.232792,-0.77597 -0.387986,-1.86234 -1.396757,-2.25033 -1.16396,-2.01753 1.396756,-0.93117 1.551947,0 0.853572,0.31039 2.017532,-0.0776 1.784738,-1.70714 0.543185,-1.47435 1.784741,-1.16396 0.77597,0.46559 1.319155,-0.3104 1.784741,-1.00876 0.543184,-0.0776 0.465583,0.38799 2.172726,-0.0776 1.319155,-1.47435 0.543184,0 1.707139,1.16396 0.93117,1.00877 -0.232792,0.54318 0.310389,0.54318 0.775975,-0.77597 1.862338,0.15519 0.155194,1.78474 0.93117,0.69838 3.414284,0.31039 3.026298,2.01753 0.698374,-0.46558 2.483119,1.24156 1.008767,-0.31039 0.931169,-0.38799 2.327921,0.93117 2.095129,1.39675 z m -55.249341,13.88993 1.008766,2.56072 -0.0776,0.46558 -1.396752,-0.1552 -0.853572,-1.93993 -0.853571,-0.69837 -1.163961,0 -0.0776,-1.24157 0.853571,-1.16396 0.543182,1.16396 0.698376,0.69838 1.319156,0.31039 z m -1.241558,16.06266 1.78474,0.38799 1.784739,0.46558 0.387988,0.46559 -0.775974,1.78473 -1.474351,-0.0776 -1.629545,-1.70714 -0.0776,-1.31916 z m -9.9324655,-6.75097 0.5431821,1.24155 0.5431814,0.77598 -0.5431814,0.38799 -1.0087663,-1.47435 0,-0.93117 0.4655842,0 z m -6.5957774,35.07402 1.6295449,-1.08637 1.629545,-0.46558 1.2415584,0.15519 0.232792,0.77598 0.9311688,0.23279 0.9311683,-0.93117 -0.1551946,-0.77597 1.3191551,-0.31039 1.396753,1.24156 -0.543181,0.85356 -2.0951295,0.54319 L 7.8833206,272.986 6.098581,272.44281 4.0034514,273.14119 3.2274777,273.29638 2.6842961,272.986 z m 23.5120069,-2.17273 0.775974,0.93117 1.008765,-0.77598 -0.698375,-0.62078 -1.086364,0.46559 z m 1.396753,1.47435 0.54318,-1.08637 1.008766,0.1552 -0.387985,0.93117 -1.163961,0 z m 11.329217,-0.93117 0.698378,0.85357 0.465587,-0.54318 -0.38799,-0.93117 -0.775975,0.62078 z m 4.190261,-5.975 0.543184,2.79351 1.396751,0.38799 2.405518,-1.39676 2.09513,-1.24156 -0.775971,-1.16396 0.232792,-1.16396 -1.008767,0.62078 -1.396751,-0.38799 0.77597,-0.54318 0.931169,0.38799 1.862339,-0.85357 0.232791,-0.69838 -1.16396,-0.38799 0.387985,-0.93117 -1.319155,0.93117 -2.250323,1.70715 -2.327921,1.39675 -0.620781,0.54318 z m 20.330515,-9.54448 1.16396,-0.69837 -0.465582,-0.85358 -0.853572,0.46559 0.155194,1.08636 z" />
  <path
     inkscape:connector-curvature="0"
     sodipodi:nodetypes="cccccccccccccccccccccccccccccccccccccccccccccccccccccccccccccccccccccccccccccccccccccccccccccccccccccccccccccccccccccccccccccccccccccccccccccc"
     style="fill:#d3d3d3;opacity:0.5"
     id="FL"
     d="m 362.41731,210.78959 1.08752,3.51293 1.79025,4.67628 2.56071,4.50063 1.78473,3.02629 2.32791,2.6383 1.93992,1.78473 0.77597,1.39674 -0.54318,0.62078 -0.38798,0.62078 1.39675,3.56946 1.39674,1.39675 1.24155,2.5607 1.70714,2.79349 2.17272,3.95745 0.62077,3.64706 0.23279,5.74218 0.31039,0.85357 -0.15519,1.62953 -1.16396,0.62078 0.1552,0.93116 -0.31039,0.93117 0.15519,1.16395 0.23279,0.93117 -1.31915,1.55194 -1.47434,0.69837 -1.86233,0.0776 -0.69837,0.77597 -1.16396,0.46558 -0.62077,-0.23279 -0.54318,-0.46558 -0.1552,-1.39675 -0.38798,-1.62954 -1.62954,-2.4831 -1.70713,-1.08636 -1.86233,-0.15519 -0.38799,0.62077 -1.47434,-2.09512 -0.31039,-1.70713 -1.24155,-1.93993 -0.85357,-0.54318 -0.77597,1.00876 -0.85357,-0.15519 -1.00876,-2.40551 -1.39674,-1.86233 -1.39675,-2.5607 -1.24155,-1.47434 -1.70714,-1.78473 1.00876,-1.16396 1.55194,-2.6383 -0.0776,-0.77597 -2.17272,-0.46558 -0.77597,0.31039 0.15519,0.31039 1.24156,0.46558 -0.69838,2.17272 -0.38798,0.23279 -0.85357,-1.93993 -0.62077,-2.32791 -0.1552,-1.31915 0.69837,-2.25031 0,-4.57823 -1.47434,-1.78473 -0.62078,-1.47434 -2.4831,-0.62078 -0.93116,-0.31039 -0.77597,-1.24155 -1.62954,-0.77597 -0.54318,-1.62954 -1.31915,-0.46558 -1.16396,-1.78473 -2.01752,-0.69837 -1.39675,-0.69838 -1.24155,0 -1.93992,0.38799 -0.0776,0.93116 0.38798,0.46558 -0.23279,0.54318 -1.47434,-0.0776 -1.78473,1.70713 -1.70714,0.93117 -1.86232,0 -1.55195,0.62077 -0.15519,-1.31915 -0.77597,-0.93116 -1.39675,-0.54318 -0.77597,-0.69837 -3.87985,-1.86233 -3.64706,-0.85357 -2.09512,0.31039 -2.87109,0.23279 -2.87109,1.00876 -1.67003,0.29422 -0.11421,-3.86388 -1.24155,-0.93116 -0.85357,-0.85357 0.1552,-1.47435 4.88861,-0.62077 12.26035,-1.39675 3.25908,-0.31039 2.60929,0.13453 1.24155,1.86234 0.69837,0.69837 3.88712,0.2473 5.19348,-0.31039 10.32594,-0.62077 2.61395,-0.3237 2.19708,0.0133 0.0776,1.39675 1.83552,0.38798 0.15519,-2.30725 -0.77597,-2.17272 0.45833,-0.35171 2.45408,0.21828 2.48311,0.15519 z m 6.0218,63.55444 1.16396,-0.31039 0.62078,-0.11639 0.69838,-1.12516 1.12516,-0.77597 0.62078,0.23279 0.81477,0.15519 0.19399,0.50438 -1.66834,0.58198 -2.01753,0.69838 -1.12516,0.58198 -0.42679,-0.42679 z m 6.47938,-2.40551 0.58198,0.50438 1.31915,-1.00876 2.56071,-2.01753 1.78474,-1.86234 1.20275,-3.18149 0.46559,-0.81477 0.0776,-1.62954 -0.34919,0.23279 -0.46558,1.35795 -0.69838,2.21152 -1.55195,2.52192 -2.09512,2.01753 -1.62954,0.93116 -1.20276,0.73718 z" />
  <path
     inkscape:connector-curvature="0"
     style="fill:#d3d3d3;opacity:0.5"
     id="SC"
     d="m 365.21749,195.15652 -0.85299,0.46536 -1.24156,-0.62078 -0.31039,-1.00877 -0.62077,-1.70713 -1.08636,-1.00877 -1.24156,-0.31038 -0.77597,-2.32792 -1.31915,-2.87109 -2.01752,-0.93117 -1.00877,-0.93116 -0.62078,-1.24156 -1.00876,-0.93117 -1.08636,-0.62077 -1.08636,-1.39675 -1.47434,-1.08636 -2.17272,-0.85357 -0.2328,-0.69837 -1.16395,-1.39675 -0.23279,-0.69838 -1.62954,-2.4831 -1.62954,0.0776 -1.93993,-1.16396 -0.62078,-0.62078 -0.15519,-0.85357 0.38798,-0.93116 1.08636,-0.46559 -0.15519,-1.00876 2.94869,-1.24155 4.34544,-2.17273 3.49187,-0.38798 7.91491,-0.23279 1.08636,0.93116 0.77597,1.55195 2.09512,-0.23279 6.05258,-0.69838 1.39675,0.38799 6.05257,3.64706 4.85188,3.89841 -2.60216,2.62001 -1.24155,2.94868 -0.23279,3.02629 -0.77597,0.38798 -0.54318,1.31915 -1.16396,0.31039 -1.00876,1.70714 -1.31915,1.31915 -1.08636,1.62953 -0.77597,0.38799 -1.70713,1.62954 -1.39675,0.0776 0.46559,1.55194 -2.40551,2.6383 -1.00876,0.62078 z" />
  <path
     inkscape:connector-curvature="0"
     sodipodi:nodetypes="ccccccccccccccccccccccccccccccccccccccccccccccccccccccccccccccccccccccccccccc"
     style="fill:#d3d3d3;opacity:0.5"
     id="GA"
     d="m 330.84253,168.77327 -2.32791,0.38798 -4.03506,0.54318 -4.11264,0.42678 0,1.04756 0.0776,1.00877 0.31039,1.62954 1.62955,3.80226 1.16395,4.73343 0.69837,2.94869 0.77597,2.32791 0.69838,3.33668 1.00876,3.02628 1.24156,1.62955 0.23279,1.62953 0.93117,0.38799 0.0776,1.00877 -0.85357,2.32791 -0.23279,1.55194 -0.0776,0.93117 0.77598,2.09512 0.15519,2.5607 -0.38799,1.16396 0.3104,0.38799 0.69837,0.38798 0.31039,1.62954 1.24155,1.86233 0.69837,0.69838 3.80227,0.0776 5.19347,-0.31038 10.32595,-0.62078 2.61395,-0.3237 2.19708,0.0133 0.0776,1.39675 1.24156,0.38798 0.15519,-2.09512 -0.77597,-2.17272 0.54318,-0.77597 2.7935,0.38799 2.38915,0.15253 -0.3722,-3.02342 1.08636,-4.81101 0.69837,-2.01753 -0.23279,-1.24155 1.60051,-2.99726 -0.24494,-0.64881 -0.91844,0.3382 -1.24155,-0.62078 -0.31039,-1.00877 -0.62077,-1.70713 -1.08637,-1.00877 -1.24155,-0.31038 -0.77597,-2.32791 -1.404,-3.0408 -2.01753,-0.93117 -1.00876,-0.93117 -0.62078,-1.24155 -1.00876,-0.93117 -1.08636,-0.62078 -1.08636,-1.39674 -1.47435,-1.08636 -2.17272,-0.85357 -0.23279,-0.69838 -1.16395,-1.39674 -0.2328,-0.69838 -1.62954,-2.35583 -1.62954,0.0776 -1.98235,-1.46094 -0.62078,-0.62078 -0.15519,-0.85357 0.38798,-0.93116 1.12879,-0.59287 -0.54429,-0.58666 0.0374,-0.13963 -2.7935,0.46559 -3.33668,0.38798 -3.25908,0.2328 z" />
  <path
     inkscape:connector-curvature="0"
     sodipodi:nodetypes="cccccccccccccccccccccccccccccccccccccccccccccccccc"
     style="fill:#d3d3d3;opacity:0.5"
     id="AL"
     d="m 300.11358,220.99633 -0.77549,-7.29432 -1.31915,-9.00127 0.0776,-6.75095 0.38798,-14.89865 -0.0776,-7.99251 0.0793,-3.08115 3.72302,-0.17793 13.34671,-1.24155 4.28282,-0.31785 -0.071,1.04756 0.0776,1.00876 0.31039,1.62954 1.62954,3.80226 1.16396,4.73343 0.69837,2.94869 0.77597,2.32791 0.69838,3.33668 1.00876,3.02629 1.24155,1.62954 0.23279,1.62954 0.93117,0.38798 0.0776,1.00877 -0.85357,2.32791 -0.23279,1.55195 -0.0776,0.93116 0.77597,2.09512 0.1552,2.56071 -0.38799,1.16396 0.31039,0.38798 0.69838,0.38799 0.49691,1.21693 -3.02628,0 -3.25908,0.31039 -12.26035,1.39674 -4.99756,0.67525 -0.0463,1.80115 0.85357,0.85357 1.24155,0.93116 0.27881,3.80901 -2.66018,1.23499 -1.31915,-0.15519 1.31915,-0.93116 0,-0.46559 -1.47435,-2.87109 -1.08636,-0.31038 -0.69837,2.09512 -0.62077,1.31914 -0.31039,-0.0776 -1.31915,0 z" />
  <path
     inkscape:connector-curvature="0"
     sodipodi:nodetypes="ccccccccccccccccccccccccccccccccccccccccccccccccccccccccccccccscccccccccccccccccccccccccccccccc"
     style="fill:#d3d3d3;opacity:0.5"
     id="NC"
     d="m 399.23776,140.21281 0.82079,2.25533 1.70714,3.10388 1.16395,1.16395 0.31039,1.08636 -1.16396,0.0776 0.38799,0.31039 -0.1552,2.01752 -1.24155,0.62078 -0.31039,1.00876 -0.62077,1.39674 -1.78473,0.77597 -1.16396,-0.15519 -0.69837,-0.0776 -0.77597,-0.62077 0.15519,0.62077 0,0.46559 0.93117,0 0.38798,0.62077 -0.93116,3.02629 2.01752,0 0.31039,0.77597 1.08636,-1.08636 0.62077,-0.23279 -0.93116,1.70713 -1.47435,2.32791 -0.62077,0 -0.54318,-0.23279 -1.31915,0.31039 -2.48311,1.16395 -3.10388,2.56071 -1.62953,2.25031 -0.93117,3.10388 -0.23279,1.16396 -2.25031,0.23279 -2.61751,0.64159 -4.77427,-3.93721 -6.05258,-3.64706 -1.39675,-0.38799 -6.05258,0.69837 -2.05269,0.36007 -0.77597,-1.55194 -1.42577,-1.01602 -7.91492,0.23279 -3.49187,0.38799 -4.34543,2.17272 -2.9487,1.24155 -0.77597,0.1552 -2.79349,0.46558 -3.33668,0.38798 -3.25908,0.2328 0.24005,-1.94608 0.85356,-0.69837 1.31916,-0.31039 0.31038,-1.78474 2.01753,-1.31915 1.86233,-0.69837 2.01753,-1.70714 2.09512,-1.00876 0.31039,-1.47435 1.86233,-1.86233 0.31039,-0.0776 c 0,0 0,0.54317 0.38798,0.54317 0.38799,0 0.93117,0.1552 0.93117,0.1552 l 1.08636,-1.70714 1.00876,-0.31039 1.08636,0.15519 0.77598,-1.70713 1.39674,-1.24156 0.23279,-1.00876 0,-1.90113 2.17272,0.34919 3.42533,-0.62078 7.59347,-0.93116 8.2253,-1.24156 9.56243,-1.92029 9.47199,-1.99911 5.45493,-1.34229 2.469,-0.5628 z m 1.86981,15.83415 1.24156,-1.20276 1.51315,-1.24156 0.73717,-0.31038 0.0776,-0.96997 -0.31039,-2.9487 -0.69838,-1.12516 -0.31039,-0.89236 0.34919,-0.1164 1.31916,2.63831 0.19399,2.13392 -0.0776,1.62954 -1.62954,0.73718 -1.35795,1.16396 -0.54318,0.58198 -0.50439,-0.0776 z" />
  <path
     inkscape:connector-curvature="0"
     sodipodi:nodetypes="ccccccccccccccccccccccccccccccccccccccsccccccccccccc"
     style="fill:#d3d3d3;opacity:0.5"
     id="TN"
     d="m 334.412,150.84832 -24.90868,2.40552 -7.56459,0.85356 -2.21818,0.2461 -1.8568,-0.0133 0,1.86234 -4.03505,0.23279 -3.33668,0.31039 -5.32609,0.0254 -0.12708,2.801 -1.02632,3.01226 -0.47763,1.44769 -0.6474,2.1029 -0.15519,1.24156 -1.93993,1.08635 0.69837,1.70714 -0.46558,2.09512 -0.46483,0.37904 3.48291,-0.0933 11.56197,-0.93117 2.56073,-0.0776 3.87984,-0.2328 13.3467,-1.24155 4.88197,-0.38799 4.0417,-0.46558 4.03505,-0.54318 2.32792,-0.38798 -0.0627,-2.16452 0.85357,-0.69837 1.31915,-0.31039 0.31039,-1.78473 2.01753,-1.31915 1.86233,-0.69838 2.01752,-1.70714 2.09512,-1.00876 0.41932,-1.69222 2.08021,-1.86233 0.31039,-0.0776 c 0,0 0,0.54318 0.38798,0.54318 0.38799,0 0.93117,0.15519 0.93117,0.15519 l 1.08636,-1.70714 1.00876,-0.31039 1.08636,0.1552 0.77598,-1.70714 1.01547,-1.07815 0.28726,-0.46408 0.0847,-1.88742 -0.71215,-0.13832 -1.16395,0.93117 -3.80227,0.0776 -5.75776,0.91233 -4.71785,0.40682 z" />
  <path
     inkscape:connector-curvature="0"
     style="fill:#d3d3d3;opacity:0.5"
     id="RI"
     d="m 419.38022,83.261598 -0.23181,-2.018109 -0.38799,-2.095124 -0.81476,-2.832294 2.75469,-0.737174 0.77597,0.543179 1.62955,2.095125 1.39625,2.134218 -1.39725,0.737472 -0.62078,-0.0776 -0.54318,0.853568 -1.16395,0.931164 -1.39674,0.465572 z" />
  <path
     inkscape:connector-curvature="0"
     sodipodi:nodetypes="cccccccccccccccccc"
     style="fill:#d3d3d3;opacity:0.5"
     id="CT"
     d="m 418.95941,83.370532 -0.30121,-2.018109 -0.38799,-2.095124 -0.77597,-2.871095 -1.9929,0.434245 -10.47562,2.289115 0.31039,1.590746 0.69837,3.491876 0,3.879857 -0.54318,1.086363 0.87955,1.012377 2.37857,-1.632577 1.70713,-1.551941 0.93117,-1.008761 0.38798,0.310388 1.31915,-0.698373 2.48311,-0.543179 3.38145,-1.675808 z" />
  <path
     inkscape:connector-curvature="0"
     sodipodi:nodetypes="ccccccccccccccccccccccccccccccccccccccccccccccccccccccccccccccc"
     style="fill:#d3d3d3;opacity:0.5"
     id="MA"
     d="m 431.8156,80.394928 1.04252,-0.32922 0.21948,-0.82304 0.49383,0.05487 0.49382,1.097393 -0.60356,0.219477 -1.86557,0.05487 0.21948,-0.274348 z m -4.4993,0.384087 1.09739,-1.261998 0.76817,0 0.87792,0.713301 -1.15226,0.493825 -1.04253,0.493825 -0.54869,-0.438953 z m -16.70359,-10.554328 8.3805,-2.017528 1.08637,-0.310388 1.00876,-1.55194 1.79365,-0.798388 1.38683,2.118163 -1.16395,2.483105 -0.1552,0.698373 0.93117,1.241552 0.54318,-0.387985 0.85356,0 1.08636,1.241553 1.86233,2.87109 1.70714,0.232791 1.08635,-0.465582 0.85357,-0.853568 -0.38798,-1.319149 -1.00877,-0.77597 -0.69837,0.387985 -0.46558,-0.620776 0.23279,-0.232792 1.00876,-0.0776 0.85357,0.387986 0.93116,1.163955 0.46559,1.396746 0.15519,1.163956 -2.01752,0.698373 -1.86233,0.931164 -1.86233,2.172717 -0.93116,0.698373 0,-0.465582 1.16395,-0.698373 0.23279,-0.853567 -0.38798,-1.474344 -1.39675,0.698373 -0.38798,0.698374 0.23279,1.086358 -0.99184,0.480203 -1.31866,-2.17302 -1.62954,-2.095125 -0.99384,-0.869985 -3.13597,0.900577 -2.44432,0.504378 -10.47562,2.289115 -0.19324,-2.373421 0.31038,-5.082613 2.48311,-0.426786 3.25908,-0.620781" />
  <path
     inkscape:connector-curvature="0"
     sodipodi:nodetypes="ccccccccsccccccccccccccccccccccccccccccccccccccccccccccccccccccccccccccccccccccccccccccccsccccc"
     style="fill:#d3d3d3;opacity:0.5"
     id="ME"
     d="m 442.96971,34.065094 0.93116,1.008762 1.08636,1.784731 0,0.931164 -1.00876,2.250314 -0.93117,0.310388 -1.62953,1.474344 -2.32792,2.638299 c 0,0 -0.31038,0 -0.62077,0 -0.31039,0 -0.46558,-1.008762 -0.46558,-1.008762 l -0.85357,0.0776 -0.46558,0.698373 -1.16396,0.698374 -0.46558,0.698373 0.77597,0.698373 -0.23279,0.310388 -0.23279,1.31915 -0.93117,-0.0776 0,-0.775971 -0.15519,-0.620776 -0.69837,0.155194 -0.85357,-1.55194 -1.00876,0.620776 0.62077,0.698373 0.1552,0.543179 -0.38799,0.620777 0.1552,1.474343 0.0776,0.77597 -0.77597,1.241553 -1.39674,0.232791 -0.1552,1.396746 -2.5607,1.474344 -0.62078,0.232791 -0.77597,-0.698373 -1.47434,1.707134 0.46558,1.551941 -0.69837,0.620776 -0.0776,2.095119 -0.53917,3.004493 -1.18188,-0.55486 -0.2328,-1.474348 -1.86233,-0.54318 -0.15519,-1.319154 -3.49188,-11.251593 -2.01532,-6.547079 0.68186,-0.05672 0.72662,0.196752 0,-1.241553 0.38799,-2.638299 1.24155,-2.250313 0.69837,-1.939926 -0.93116,-1.163955 0,-2.87109 0.38798,-0.465583 0.38799,-1.319149 -0.0776,-0.698373 -0.0776,-2.327911 0.85357,-2.327911 1.39675,-4.267836 1.00876,-2.017523 0.62078,0 0.62077,0.0776 0,0.543179 0.62078,1.086359 1.31915,0.310388 0.38798,-0.387985 0,-0.465582 1.93993,-1.396747 0.85357,-0.853567 0.69837,0.0776 2.87109,1.163955 0.93116,0.465582 4.34544,14.35545 2.87109,0 0.38798,0.931164 0.0776,2.327911 1.39675,1.086359 0.38798,0 0.0776,-0.232792 -0.23279,-0.543179 1.31915,-0.0776 z m -10.04725,14.470815 0.73718,-0.737174 0.65957,0.504383 0.2716,1.16396 -0.81478,0.426786 -0.85357,-1.357955 z m 3.22029,-2.832299 0.85357,0.892368 c 0,0 0.62078,0.03879 0.62078,-0.116398 0,-0.155194 0.11639,-0.969965 0.11639,-0.969965 l 0.42679,-0.387985 -0.38799,-0.853572 -0.96996,0.349189 -0.65958,1.086363 z" />
  <path
     inkscape:connector-curvature="0"
     sodipodi:nodetypes="ccccccccccccccccccccccccccccccccc"
     style="fill:#d3d3d3;opacity:0.5"
     id="NH"
     d="m 422.61015,65.310235 0.41712,-0.516719 0.5233,-1.579692 -1.22067,-0.438466 -0.2328,-1.474349 -1.86233,-0.543179 -0.15519,-1.319154 -3.49188,-11.251594 -2.20868,-6.980633 -0.4306,-0.0025 -0.31039,0.77597 -0.31039,-0.232791 -0.46558,-0.465582 -0.69837,0.931164 -0.0232,2.415386 0.1496,2.720266 0.93116,1.319154 0,1.939931 -1.78474,2.430135 -1.24155,0.543184 0,0.543179 0.54318,0.853568 0,4.112652 -0.38798,4.42304 -0.0776,2.327916 0.46558,0.620781 -0.0776,2.172717 -0.23279,0.853572 0.69838,0.425282 7.86716,-2.251064 1.08636,-0.310388 0.73643,-1.225134 1.79414,-0.816723 z" />
  <path
     inkscape:connector-curvature="0"
     sodipodi:nodetypes="ccccccccccccccccccccccccccccc"
     style="fill:#d3d3d3;opacity:0.5"
     id="VT"
     d="m 405.11153,70.735035 -0.38799,-2.715901 -1.14754,-4.786403 -0.31039,-0.155194 -1.39675,-0.620776 0.38798,-1.396752 -0.38798,-1.008761 -1.29602,-2.227191 0.46558,-1.862334 -0.38799,-2.48311 -1.16396,-3.103891 -0.38667,-2.362803 12.59879,-3.238773 0.15568,2.79316 0.93117,1.319155 0,1.93993 -1.78474,1.939926 -1.24155,0.543184 0,0.543179 0.54318,0.853567 0,4.112653 -0.38799,4.42304 -0.0776,2.327916 0.46559,0.620781 -0.0776,2.172717 -0.23279,0.853572 0.3171,0.752088 -3.33668,0.659582 -1.86083,0.107439 z" />
  <path
     inkscape:connector-curvature="0"
     sodipodi:nodetypes="cccccccccccccccccccccccccccccccccccccccccccccccccccccccccccccccccccccccccccccccccccccccccccccccccccccccc"
     style="fill:#d3d3d3;opacity:0.5"
     id="NY"
     d="m 397.56147,87.869093 -0.54318,-0.465582 -1.24156,-0.0776 -1.08636,-0.931164 -0.78269,-2.941983 -1.66006,0.04346 -1.17298,-1.299935 -9.30496,2.103333 -20.64085,4.19025 -3.61423,0.589434 -0.35432,-3.1048 0.68549,-0.540184 0.62078,-0.543179 0.46558,-0.775971 0.85356,-0.543179 0.93117,-0.853567 0.23279,-0.77597 1.00876,-1.31915 0.54318,-0.465582 -0.0776,-0.465582 -0.62077,-1.474344 -0.85357,-0.0776 -0.93116,-2.948686 1.39674,-0.853568 2.09512,-0.698373 1.93993,-0.620776 1.55194,-0.232791 3.02628,-0.0776 0.93117,0.620776 0.77597,0.0776 1.00876,-0.620776 1.24155,-0.543179 2.48311,-0.232792 1.00876,-0.853567 0.85356,-1.55194 0.77597,-0.931165 1.00877,0 0.93116,-0.543179 0.0776,-1.086358 -0.69838,-1.008761 -0.15519,-0.698374 0.54318,-1.008761 0,-0.698373 -0.85357,0 -0.85357,-0.387985 -0.38798,-0.54318 -0.0776,-1.241552 2.79349,-2.638299 0.31039,-0.387985 0.69838,-1.396746 1.39674,-2.172717 1.31915,-1.784732 1.00876,-1.163955 1.15925,-0.876293 1.47905,-0.59805 2.6383,-0.620777 1.55194,0.0776 2.17272,-0.698373 3.63129,-0.994161 0.2495,2.390242 1.16396,3.103891 0.38799,2.48311 -0.46558,1.862333 1.24155,2.172722 0.38798,1.008761 -0.38798,1.396752 1.39675,0.620776 0.31039,0.155194 1.47435,5.276613 -0.25742,2.42864 -0.23279,5.199011 0.38798,2.638303 0.38799,1.70714 0.69837,3.491876 0,3.879856 -0.54318,1.086364 0.88288,0.956536 0.38234,0.805644 -0.93116,0.853567 0.15519,0.620776 0.62078,-0.155194 0.69837,-0.620776 1.08636,-1.241553 0.54318,-0.310388 0.77597,0.310388 1.08636,0.0776 3.80225,-1.862328 1.39675,-1.31915 0.62078,-0.698373 2.01752,0.77597 -1.62954,1.707135 -1.86233,1.396746 -3.41427,2.560702 -1.24155,0.465582 -2.79349,0.931165 -1.93993,0.543179 -0.56387,-0.255805 -0.11713,-1.770493 0.23279,-1.319154 -0.0776,-1.008762 -1.35048,-0.815521 -2.17272,-0.465582 -1.86234,-0.543179 -1.78473,-0.853573 z" />
  <path
     inkscape:connector-curvature="0"
     style="fill:#d3d3d3;opacity:0.5"
     id="NJ"
     d="m 397.34359,88.304834 -1.00876,1.16396 0,1.474348 -0.93117,1.474344 -0.0776,0.775975 0.62078,0.620776 -0.0776,1.163961 -1.08636,0.543179 0.38798,1.319149 0.0776,0.543184 1.31915,0.155194 0.46559,1.241553 1.70713,1.16396 1.16396,0.775973 0,0.38798 -1.55194,1.47435 -0.77598,1.08636 -0.69837,1.31915 -1.08636,0.62078 -0.58198,0.34919 -0.1164,0.58198 -0.29243,1.25124 0.52429,1.07721 1.55194,1.39674 2.32791,1.08636 1.93993,0.31039 0.0776,0.69837 -0.38799,0.46558 0.1552,1.31915 0.38798,0 1.00876,-1.16395 0.38799,-2.32791 1.31915,-1.93993 1.47434,-3.10388 0.54318,-2.6383 -0.31039,-0.54318 -0.0776,-4.500624 -0.77597,-1.629538 -0.54318,0.387985 -1.31915,0.155194 -0.23279,-0.232791 0.54318,-0.465582 1.00876,-0.931164 0.0303,-0.525038 -0.18451,-1.648245 0.23279,-1.319154 -0.0776,-1.008762 -1.24155,-0.543184 -2.17272,-0.465582 -1.86234,-0.543179 -1.78473,-0.853572 z" />
  <path
     inkscape:connector-curvature="0"
     sodipodi:nodetypes="cccccccccccccccccccccccccccccccccccccccccccc"
     style="fill:#d3d3d3;opacity:0.5"
     id="PA"
     d="m 394.48592,105.64706 0.54319,-0.31039 1.08635,-0.29397 0.69838,-1.31915 0.77597,-1.08636 1.55194,-1.47435 0,-0.38798 -1.16395,-0.775973 -1.70714,-1.163961 -0.46558,-1.241552 -1.31916,-0.155194 -0.0776,-0.543184 -0.38799,-1.31915 1.08636,-0.543179 0.0776,-1.16396 -0.62078,-0.620776 0.0776,-0.775976 0.93117,-1.474343 0,-1.474349 1.12516,-1.163955 0.10296,-0.520056 -1.24155,-0.0776 -1.08636,-0.931164 -1.16396,-2.560707 -1.4422,-0.44675 -1.11851,-1.027598 -8.92368,1.939931 -20.64085,4.190249 -4.26785,0.698373 -0.23792,-3.400269 -2.63401,2.702472 -0.62078,0.232791 -2.0171,1.444268 1.39716,9.185973 1.1912,4.670097 1.71446,9.24551 1.56927,-0.30608 5.73292,-0.72119 18.20479,-3.6793 7.14058,-1.35519 3.98416,-0.77873 0.12821,-0.1145 1.00877,-0.77597 1.00876,-0.32681 z" />
  <path
     inkscape:connector-curvature="0"
     sodipodi:nodetypes="cccccccccccccccccccc"
     style="fill:#d3d3d3;opacity:0.5"
     id="DE"
     d="m 394.55586,107.54948 0.28286,-1.0093 0.0103,-0.57836 -0.60934,-0.0424 -1.00877,0.77598 -0.69837,0.69837 0.69837,2.01753 1.08636,2.7159 1.00877,4.65583 0.77597,3.0263 2.40551,-0.0776 2.94822,-0.58173 -1.08683,-3.53041 -0.46558,0.23279 -1.70714,-1.16395 -0.85357,-2.25032 -0.93116,-1.70713 -1.08636,-0.46558 -1.00876,-1.70714 0.23949,-1.00876 z" />
  <path
     inkscape:connector-curvature="0"
     sodipodi:nodetypes="ccccccccccccccccccccccccccccccccccccccccccccccccccsccccccccccccccccccccccccccccsccc"
     style="fill:#d3d3d3;opacity:0.5"
     id="MD"
     d="m 401.56423,119.49271 -2.94774,0.62027 -2.78679,0.0776 -0.88491,-3.40757 -1.00876,-4.65584 -1.08636,-2.7159 -0.61843,-2.11119 -3.60289,0.77873 -7.14058,1.35519 -17.97669,3.62443 0.54303,2.4056 0.46558,2.7159 0.15519,-0.1552 1.00877,-1.16395 1.08636,-1.25648 1.16395,-0.29547 0.69838,-0.69837 0.85357,-1.24155 0.62078,0.31038 1.39674,-0.15519 1.24156,-1.00876 0.9633,-0.69757 0.88572,-0.23279 0.78928,0.54237 1.39675,0.69838 0.93116,0.85356 0.58198,0.73718 1.97873,0.81476 0,1.39676 2.6383,0.62077 0.54933,0.26015 0.67772,-0.97359 1.38334,0.94568 -0.61352,1.19132 -0.36733,1.91312 -0.85357,1.24155 0,1.00877 0.31039,0.85357 2.4307,0.65073 2.06932,-0.0296 1.47435,0.46558 1.00876,0.1552 0.46558,-1.00877 -0.69837,-1.00876 0,-0.85356 -1.16396,-1.00877 -1.00876,-2.63829 0.62078,-2.56071 -0.0776,-1.00876 -0.62078,-0.62077 c 0,0 0.69838,-0.77597 0.69838,-1.08636 0,-0.31039 0.23279,-1.00876 0.23279,-1.00876 l 0.93116,-0.62078 0.93117,-0.77597 0.23279,0.46558 -0.69838,0.77597 -0.62077,1.78473 0.15519,0.54318 0.85357,0.1552 0.23279,2.6383 -1.00876,0.46558 0.15519,1.70713 0.23279,-0.0776 0.54318,-0.93117 0.77597,0.85357 -0.77597,0.62077 -0.15519,1.62954 1.24155,1.62954 1.86233,0.23279 0.77597,-0.38798 1.55355,2.0078 0.652,0.25743 3.19377,-1.34254 0.96364,-1.93146 0.10893,-2.33462 z m -7.98359,4.31258 0.54318,1.20275 0.0776,0.85357 0.54318,0.89237 c 0,0 0.42679,-0.42678 0.42679,-0.58198 0,-0.15519 -0.34919,-1.47435 -0.34919,-1.47435 l -0.34918,-1.12516 -0.89237,0.2328 z" />
  <path
     inkscape:connector-curvature="0"
     sodipodi:nodetypes="cccccccccccccccccccccccccccccccccccccccccccscccccccccccccccccccccccccccccccccccccccccc"
     style="fill:#d3d3d3;opacity:0.5"
     id="WV"
     d="m 362.97567,113.09066 0.53376,2.37337 0.52005,3.31504 1.70864,-1.31915 1.08636,-1.47435 1.21842,-0.29546 0.69838,-0.69838 0.85356,-1.24155 0.56631,0.31039 1.39675,-0.15519 1.24156,-1.00877 0.9633,-0.69756 0.88572,-0.2328 0.62588,0.48791 1.06994,0.53497 0.93116,0.85357 0.65958,0.62077 -0.0686,2.24211 -2.7159,-1.47435 -2.17272,-0.85356 -0.0776,2.5607 -0.23279,1.00877 -0.77597,1.31915 -0.31039,0.77597 -1.47434,1.16396 -0.2328,1.08636 -1.62954,0.15519 -0.15519,1.47435 -0.54318,2.6383 -1.24155,0 -0.62078,-0.38798 -0.77598,-1.31916 -0.85356,0.0776 -0.1552,2.09512 -1.00876,3.18149 -2.40551,5.19901 0.38798,0.62077 -0.0776,1.31915 -1.00876,0.93117 -0.69838,-0.1552 -1.55194,1.16396 -1.24156,-0.46558 -0.85356,2.25031 c 0,0 -1.78474,0.38799 -2.09513,0.46559 -0.31039,0.0776 -1.16395,-0.62078 -1.16395,-0.62078 l -1.16396,1.08636 -1.24156,0.31039 -1.39675,-0.38799 -0.62077,-0.62078 -1.05227,-1.45121 -1.50844,-0.95429 -1.24155,-1.31916 -1.39675,-1.78473 -0.31039,-1.08636 -1.24155,-0.69838 -0.38799,-0.77597 -0.1164,-2.52191 1.04757,-0.0388 0.93116,-0.38799 0.0776,-1.31915 0.77597,-0.69838 0.0776,-2.4055 0.46558,-1.86234 0.62078,-0.31038 0.62077,0.54317 0.2328,0.85357 0.85357,-0.46558 0.23279,-0.77597 -0.54318,-0.85357 0,-1.16396 0.46558,-0.62077 1.08636,-1.62954 0.62078,-0.69838 1.00876,0.2328 1.08636,-0.77598 1.47434,-1.62954 1.08637,-1.86233 0.15519,-2.7159 0.23279,-2.40551 0,-2.25032 -0.54318,-1.47434 0.46558,-0.69838 0.61607,-0.62078 1.67581,9.51702 2.22288,-0.36055 5.4256,-0.74383 z" />
  <path
     inkscape:connector-curvature="0"
     sodipodi:nodetypes="cccccccccccccccccccccccccccccccccccccccccccccccccccccccccccccccccccccccccccccccccccccccc"
     style="fill:#d3d3d3;opacity:0.5"
     id="KY"
     d="m 346.28246,139.89892 -1.11579,1.28781 -2.01753,1.70714 -2.06379,2.83305 -0.85356,0.85356 0,1.00876 -1.86234,1.00877 -2.71589,1.62954 -1.68939,0.18463 -24.89659,2.35145 -7.56459,0.85356 -2.21818,0.2461 -1.8568,-0.0133 -0.10894,2.02573 -3.92611,0.0694 -3.33668,0.31039 -5.00669,0.0987 0.91814,-0.10638 1.04642,-0.84577 0.98765,-0.5487 0.10974,-1.53634 0.43896,-0.87791 -0.77128,-1.21868 0.38488,-0.91527 1.08637,-0.85356 1.00876,-0.31039 1.31915,0.62078 1.70714,0.62077 0.54318,-0.15519 0.0776,-1.08636 -0.62077,-1.16396 0.15519,-1.08636 0.93116,-0.69837 1.24156,-0.31039 0.77597,-0.31039 -0.38798,-0.85357 -0.31039,-0.93117 0.54318,-0.38798 0.50438,-1.59075 1.43554,-0.81476 2.7935,-0.46559 1.70714,-0.23279 0.69837,0.93117 0.85357,0.38798 0.85357,-1.55194 1.39675,-0.69837 0.93116,0.77597 0.38799,0.54318 1.00877,-0.23279 -0.0776,-1.62954 1.39676,-0.77598 0.54317,-0.38798 0.54318,0.77597 2.25032,0 0.38799,-1.00876 -0.1552,-1.08636 1.39675,-1.70714 2.25032,-1.86233 0.23279,-2.17272 1.31915,-0.15519 1.86233,-0.85357 1.31916,-0.93117 -0.1552,-0.93116 -0.69838,-0.69838 0.2716,-1.04755 1.97872,-0.1164 1.16396,-0.38799 1.39675,0.77597 0.77597,2.09512 2.7935,0.1552 0.85357,0.85357 1.00876,0.0776 1.16396,-0.69838 1.47434,0.23279 0.62078,0.69838 1.31915,-1.24156 0.85357,-0.62078 0.77597,0 0.31039,1.31916 0.85357,0.46558 1.16246,1.06323 0.0776,2.6383 0.38799,0.77597 1.24155,0.69838 0.31039,1.08636 1.39675,1.78473 1.24155,1.31916 1.62914,0.94608 z" />
  <path
     inkscape:connector-curvature="0"
     sodipodi:nodetypes="cccccccccccccccccccccccccccccccccccccccccccccccccccccccccccccccc"
     style="fill:#d3d3d3;opacity:0.5"
     id="OH"
     d="m 350.91585,90.550047 -2.9249,1.945607 -1.86233,1.086358 -1.62954,1.784732 -1.93992,1.862329 -1.55195,0.387985 -1.39674,0.232791 -2.6383,1.241552 -1.00876,0.0776 -1.62954,-1.474343 -2.4831,0.310388 -1.24156,-0.698373 -1.14291,-0.648399 -2.34843,0.337638 -4.88862,0.77597 -3.72467,0.58198 0.62079,7.022541 0.85356,6.59575 1.24155,11.25159 0.2716,2.31896 1.97872,-0.0619 1.16396,-0.38798 1.61462,0.7215 0.99384,2.09512 2.46669,-0.008 0.90804,1.01697 0.84536,-0.0313 1.21843,-0.64391 1.202,0.17832 0.94758,0.69838 0.82895,-1.02369 1.12591,-0.62077 0.99383,-0.32681 0.31039,1.31915 0.85357,0.46559 1.66834,1.12515 1.04756,-0.0388 0.54989,-0.55138 -0.0313,-0.66554 0.77597,-0.69838 0.0776,-2.40551 c 0,0 0.46559,-1.86233 0.46559,-1.86233 l 0.72971,-0.69166 0.72971,0.43424 0.3962,0.58123 0.58123,-0.0843 -0.20295,-1.15725 -0.27084,-0.30888 0,-1.16396 0.46558,-0.62078 1.08636,-1.62954 0.62078,-0.69837 1.00876,0.23279 1.08636,-0.77598 1.47434,-1.62953 1.08637,-1.86234 0.10072,-2.60695 0.23279,-2.40552 0,-2.25031 -0.54318,-1.47435 0.46559,-0.69838 0.44184,-0.45821 -0.67436,-4.724558 -1.39674,-9.293645 z" />
  <path
     inkscape:connector-curvature="0"
     sodipodi:nodetypes="ccccccccccccccsccccccccccccccccsccccccccccccccccccccccccccccccccccccccccccccccccccccccccccccccccccccccccccccccccccccccccccccccccccccccccccccccccccccccccccccccccccccccccccccccccccccccccccccccccccccccccccccccc"
     style="fill:#d3d3d3;opacity:0.5"
     id="MI"
     d="m 279.00389,36.334672 0.87791,-0.98765 1.04252,-0.384087 2.57887,-1.865566 1.09739,-0.274349 0.21948,0.219482 -2.46913,2.46913 -1.59122,0.932778 -0.98765,0.438959 -0.76817,-0.548697 z m 41.3637,15.421526 0.31039,1.202756 1.55194,0.0776 0.62078,-0.58198 c 0,0 -0.0388,-0.698373 -0.19399,-0.77597 -0.1552,-0.0776 -0.77597,-0.892368 -0.77597,-0.892368 l -1.04756,0.116393 -0.77598,0.0776 -0.15519,0.543184 0.46558,0.232791 z m 14.43186,30.263858 -1.55194,-3.957449 -1.08636,-4.345433 -1.16395,-1.551941 -1.24155,-0.853567 -0.77597,0.543179 -1.86233,0.853568 -0.93117,2.405507 -1.31915,1.784732 -0.54318,0.310388 -0.69837,-0.310388 c 0,0 -1.24155,-0.698373 -1.16395,-1.008761 0.0776,-0.310388 0.23279,-2.405508 0.23279,-2.405508 l 1.62953,-0.620776 0.38799,-1.629538 0.31039,-1.241552 1.16395,-0.77597 -0.15519,-4.811016 -0.77597,-1.086358 -0.62078,-0.387985 -0.38798,-1.008762 0.38798,-0.387985 0.77597,0.155194 0.0776,-0.77597 -1.16396,-1.086358 -0.62077,-1.241553 -1.24155,0 -2.17272,-0.698373 -2.6383,-1.629538 -1.31915,0 -0.31039,0.310388 -0.46558,-0.232791 -1.47434,-1.086358 -1.39675,0.853567 -1.39675,1.086359 0.1552,1.707134 0.46558,0.155194 1.00876,0.232791 0.23279,0.387985 -1.24155,0.387986 -1.24155,0.155194 -0.69838,0.853567 -0.15519,1.008761 0.15519,0.77597 0.1552,2.638299 -1.70714,1.008762 -0.31038,-0.0776 0,-2.017523 0.62077,-1.163955 0.31039,-1.163956 -0.38798,-0.387985 -0.93117,0.387985 -0.46558,2.017523 -1.31915,0.543179 -0.85357,0.931164 -0.0776,0.465583 0.31038,0.387985 -0.31038,1.241552 -1.08636,0.232791 0,0.543179 0.38798,1.163956 -0.54318,2.948687 -0.77597,1.939925 0.31039,2.250314 0.23279,0.543179 -0.38798,1.163956 -0.1552,0.387985 -0.15519,1.319149 1.70713,2.87109 1.39675,3.103881 0.69837,2.327911 -0.38798,2.250313 -0.46558,2.87109 -1.16396,2.483105 -0.15519,1.31915 -1.56426,1.480869 2.11613,-0.07778 10.28088,-1.086363 3.49336,-0.473787 0.0462,0.799848 3.28892,-0.58198 4.94308,-0.721501 1.85002,-0.22124 0.0663,-0.282021 0.0776,-0.698373 1.00876,-1.784732 0.96027,-0.834169 -0.1067,-2.424906 0.76655,-0.766554 0.5235,-0.16461 0.10669,-1.707134 0.73717,-1.454941 0.50439,0.290985 0.0776,0.310388 0.38799,0.0776 0.93116,-0.465582 -0.15519,-4.578224 z m -62.57663,-31.69138 0.34382,-0.278595 1.31915,-0.387985 1.70713,-1.086358 0,-0.465582 0.31039,-0.310388 2.87109,-0.465583 1.16396,-0.931164 2.09512,-1.008761 0.0776,-0.620776 0.93117,-1.396747 0.85356,-0.387985 0.62078,-0.853567 1.08636,-1.086359 2.09512,-1.163955 2.25031,-0.232791 0.54318,0.543179 -0.15519,0.465582 -1.78473,0.465582 -0.69838,1.474344 -1.08636,0.387985 -0.23279,1.163955 -1.16395,1.551941 -0.1552,1.241552 0.38799,0.232791 0.46558,-0.543179 1.70714,-1.396746 0.62077,0.620776 1.08636,0 1.55194,0.465582 0.69837,0.543179 0.69838,1.474344 1.31915,1.319149 1.86233,-0.0776 0.69837,-0.465582 0.77597,0.620776 0.77597,0.232791 0.62078,-0.387985 0.54317,0 0.77597,-0.465582 1.93993,-1.707134 1.62954,-0.54318 3.18148,-0.155194 2.17271,-0.931164 1.24155,-0.620776 0.69838,0.0776 0,2.715896 0.23279,0.155194 1.39675,0.387985 0.93116,-0.232791 2.94869,-0.77597 0.54318,-0.54318 0.69837,0.232791 0,3.336673 1.55194,1.474343 0.62078,0.310388 0.62077,0.465582 -0.62077,0.155194 -0.38799,-0.155194 -1.78473,-0.232791 -1.00876,0.310388 -1.08636,-0.0776 -1.55194,0.698373 -0.85357,0 -2.79349,-0.620776 -2.48311,0.0776 -0.93116,1.241553 -3.33667,0.310388 -1.16396,0.387985 -0.54318,1.474343 -0.62077,0.54318 -0.23279,-0.0776 -0.69838,-0.775971 -2.17271,1.163956 -0.31039,0 -0.54318,-0.775971 -0.38799,0.0776 -0.93116,2.09512 -0.46558,1.939926 -1.52694,3.360385 -0.56485,-0.496452 -0.65843,-0.495031 -0.93158,-4.93825 -1.70135,-0.657626 -0.98524,-1.097388 -5.81777,-1.31687 -1.37053,-0.494227 -3.9506,-1.042919 -3.78719,-0.548697 -1.78527,-2.469929 z" />
  <path
     inkscape:connector-curvature="0"
     sodipodi:nodetypes="ccccccccccccccccccc"
     style="fill:#d3d3d3;opacity:0.5"
     id="WY"
     d="m 169.86743,65.958768 -5.0636,-0.387375 -15.40223,-1.581802 -7.79147,-0.98765 -13.60761,-1.9753 -9.54728,-1.426603 -0.68116,5.36446 -1.84283,11.645061 -2.524,14.595268 -0.73488,5.047765 -0.80146,5.706638 3.13146,0.44562 12.42209,1.19996 9.87317,1.10736 17.65619,1.97529 11.4341,1.37281 2.16207,-21.212319 0.69114,-12.181014 0.6263,-8.708169 z" />
  <path
     inkscape:connector-curvature="0"
     sodipodi:nodetypes="cccccccccccccccccccccccccccccccccccccccccccccccccccccccc"
     style="fill:#d3d3d3;opacity:0.5"
     id="MT"
     d="m 171.02853,55.637797 0.31095,-5.352283 1.08407,-11.897816 c 0.21949,-2.414258 0.52018,-4.066611 0.65844,-7.396832 l 0.45108,-6.984775 -14.72367,-1.347759 -14.04506,-1.707135 -14.04506,-1.939926 -15.51941,-2.560701 -8.84606,-1.629538 -15.70735,-3.327713 -2.149932,10.246815 1.646085,3.62138 -0.658435,2.194777 0.877912,2.194776 1.536346,0.658435 2.217994,5.169338 1.293648,1.52473 0.219477,0.548697 1.646085,0.548697 0.219476,0.987645 -3.401903,8.449896 0,1.207127 1.207127,1.536341 0.438953,0 2.304515,-1.426603 0.32922,-0.548697 0.768173,0.32922 -0.109743,2.523992 1.316872,6.035638 1.4266,1.207127 0.43895,0.329215 0.87792,1.097388 -0.21948,1.646085 0.32921,1.64608 0.5487,0.438958 1.09739,-1.097388 1.31686,0 1.53635,0.768173 1.20713,-0.438958 1.9753,0 1.75582,0.768173 1.31687,-0.219477 0.21947,-1.426608 1.42661,-0.329215 0.65843,0.658435 0.21948,1.536342 0.85412,0.655187 0.73603,-5.551234 9.93243,1.426603 13.53058,1.898274 7.94553,0.910619 15.09412,1.658833 5.27526,0.731553 0.50495,-7.405085 0.67557,-2.566806 z" />
  <path
     inkscape:connector-curvature="0"
     sodipodi:nodetypes="cccccccccccccccccccccccccccccccccccccccccccccccccccccccccccccccccccccccccc"
     style="fill:#d3d3d3;opacity:0.5"
     id="ID"
     d="m 67.496449,81.718646 2.124977,-8.401187 2.085038,-8.504758 0.658435,-2.030172 1.207127,-2.853207 -0.603564,-1.097388 -1.207131,0.05487 -0.384082,-0.493825 0.219477,-0.548692 0.164605,-1.481475 2.13991,-2.633735 0.877911,-0.219476 0.548692,-0.548692 0.274348,-1.536347 0.438953,-0.329215 1.865562,-2.79834 1.865562,-2.085038 0.109738,-1.81069 -1.646085,-1.261998 -0.630997,-2.112472 0.192044,-4.636463 1.755823,-7.9012 2.139905,-9.986233 1.81069,-6.474586 0.365726,-1.825529 6.238146,1.213493 -1.995875,10.323846 1.414997,3.698411 -0.504378,2.194776 0.954942,2.194777 1.536347,0.812492 2.140963,4.707162 1.293648,1.832849 0.296507,0.548697 1.646085,0.548696 0.219477,1.218728 -3.324872,8.064752 0.154056,1.592271 1.284153,1.382285 0.901129,0.231088 2.304514,-1.734717 0.175164,-0.240583 0.07491,0.406251 0.121344,1.984785 1.23984,6.1897 1.65769,1.284152 0.20787,0.406246 1.03197,1.174414 -0.37353,1.337972 0.32921,1.800137 0.93384,0.438958 1.02036,-0.78927 1.23983,-0.231088 1.61338,0.768174 1.20713,-0.284902 1.82124,-0.07703 1.90988,0.768174 1.31687,-0.142446 0.45056,-1.118495 1.19552,-0.791385 0.35032,0.812492 0.2965,1.074166 1.10794,1.218738 -1.81069,11.510968 -2.46914,13.924204 -1.99642,-0.152974 -3.92844,-0.735461 -4.70715,-0.877912 -5.838323,-1.141706 -6.013479,-1.201853 -4.071944,-0.883186 -4.44442,-0.80088 -4.432814,-0.855758 C 66.790746,81.722227 70.853279,82.44044 67.496449,81.718646 z" />
  <path
     inkscape:connector-curvature="0"
     sodipodi:nodetypes="ccccccccccccccccccccccccccccccccccccccccccccccccccccccccccccccccccccccccccccccccccccccccccscccccc"
     style="fill:#d3d3d3;opacity:0.5"
     id="WA"
     d="m 44.741773,2.5e-7 2.09512,0.69837322 4.655822,1.31914943 4.112642,0.9311643 9.622031,2.7158959 11.018778,2.7158958 7.277096,1.6294431 -0.48205,1.864345 -1.964747,6.628643 -2.139905,9.986233 -1.524736,7.747143 -0.168747,4.50181 -6.326946,-1.869138 -7.473847,-1.623925 -6.560055,0.285954 -0.758678,-0.735456 -2.556704,0.910619 -1.908822,-0.120291 -1.306317,-0.845199 -0.75762,0.252189 -2.018556,-0.109744 -0.900071,-0.65843 -2.292908,-0.833593 -0.692201,-0.09918 -2.393157,-0.636276 -0.855749,0.72385 -2.731864,-0.164605 -2.314005,-1.821238 0.09813,-0.384087 0.03271,-3.808154 -1.02036,-1.865556 -1.9753,-0.35138 -0.175156,-1.130095 -1.206916,-0.300982 -1.383138,-0.256744 -0.853567,0.465583 -1.086359,-1.396747 0.155194,-1.396746 1.31915,-0.155194 0.77597,-1.939926 -1.241552,-0.543179 0.0776,-1.784732 2.095119,-0.310388 -1.319149,-1.319149 -0.698373,-3.414269 0.310388,-1.396747 0,-3.8022541 -0.853567,-1.5519405 1.086358,-4.5006274 1.008761,0.2327911 1.163956,1.3967464 1.319149,1.2415524 1.551941,0.9311643 2.172716,1.0087613 1.474345,0.3103881 1.396746,0.6983733 1.629541,0.4655821 1.086359,-0.077597 0,-1.1639554 0.620776,-0.5431792 1.008761,-0.6207762 0.155194,0.5431792 0.155194,0.8535673 -1.086358,0.2327911 -0.155194,1.0087613 0.853567,0.6983732 0.543179,1.1639557 0.310388,0.931164 0.698374,-0.0776 0.0776,-0.620776 -0.465583,-0.620776 -0.232791,-1.5519409 0.387986,-0.8535673 -0.310389,-0.6983732 0,-1.0863584 L 45.750535,4.3454337 45.207356,3.1038813 44.0434,0.7759705 44.198594,0.38798538 44.741773,2.5000001e-7 z m -4.539211,2.86990305 0.969967,-0.077597 0.232791,0.6595772 0.737174,-0.7759752 1.125159,0 0.387985,0.7371742 -0.737174,0.8147713 0.310393,0.3879901 -0.349189,0.9699653 -0.659577,0.19399 c 0,0 -0.426786,0.038786 -0.426786,-0.116393 0,-0.1551941 0.698378,-1.2415574 0.698378,-1.2415574 L 41.676912,4.1502566 41.521718,4.8486348 41.172529,5.1590229 40.435353,4.0726596 40.202562,2.8699033 z" />
  <path
     inkscape:connector-curvature="0"
     sodipodi:nodetypes="ccccccccccccccccccccccccccccccccccccccccccccccccccccccccccccccccccccccccccccccccccccccccccccccccccccccccccccccccccccccccccccccccccccccccccccccccccccccccccccccccccccccccccccccccccccccccc"
     style="fill:#d3d3d3;opacity:0.5"
     id="TX"
     d="m 171.21221,156.96582 10.89158,0.52125 14.92449,0.5487 -1.12061,11.25878 -0.14244,8.71369 0.0327,0.99926 2.08504,1.83285 0.83359,0.39464 0.86843,0.12135 0.32921,-0.60251 0.42735,0.41574 0.83359,0.23108 0.77029,-0.35031 0.54658,0.19626 -0.14245,1.63447 2.05233,0.49488 1.28415,0.39464 1.89828,0.25219 1.05306,0.87791 1.55957,-0.75656 1.33797,0.17516 0.97604,1.33797 0.51598,0.15405 -0.077,0.94333 1.48253,0.5603 1.32848,-0.8663 0.72385,0.17516 1.1301,0.077 0.20787,0.89901 2.22748,0.95494 1.27467,-0.0981 0.95494,-1.9753 0.16355,0 0.5487,0.91062 2.12935,0.48328 1.60177,0.5814 1.58066,0.36193 1.03197,-0.36193 0.40624,-1.20712 1.77692,0 0.91063,0.36192 1.47092,-0.75656 0.31761,0 0.17516,0.53708 2.05233,0 1.15332,-0.6025 0.80088,0.14244 0.67953,0.89902 1.38228,0.80088 1.69041,0.51599 1.31687,0.68059 1.17441,0.77872 1.58066,-0.42734 0.93173,0.47166 0.24533,4.86702 0.16091,4.65704 0.32922,4.57633 0.25219,1.94258 1.28415,2.20639 0.51599,1.95208 1.85395,3.01888 0.26379,1.38229 0.25219,0.48327 -0.32922,3.59817 -1.27254,2.10613 0.46006,1.3728 -0.17517,1.20712 -0.40624,3.51165 -0.65843,1.30526 0.29003,2.10539 -2.71914,0.76089 -4.73342,2.17271 -0.46558,0.93117 -1.24155,0.93116 -1.00876,0.69838 -0.62078,0.38798 -2.7159,2.5607 -1.31915,1.00876 -2.5607,1.55194 -2.71589,1.16396 -3.02629,1.62954 -0.85357,0.69837 -2.79349,1.70713 -1.62954,0.31039 -1.86232,2.6383 -1.93993,0.1552 -0.46558,0.93116 1.08636,0.93116 -0.69838,2.6383 -0.62077,2.17272 -0.54318,1.86233 -0.38799,2.17272 0.38799,1.16395 0.85356,3.33667 0.46559,2.94869 0.85356,1.31915 -0.46558,0.69837 -1.47434,0.93117 -2.7159,-1.86233 -2.6383,-0.54318 -0.62077,0.23279 -1.55194,-0.31039 -2.01753,-1.47434 -2.4831,-0.54318 -3.64706,-1.62954 -1.00876,-1.86233 -0.62078,-3.10388 -1.55194,-0.93116 -0.31039,-1.08636 0.31039,-0.31039 0.1552,-1.62954 -0.62078,-0.31038 -0.31039,-0.46559 0.62078,-2.09512 -0.77597,-1.08635 -1.55194,-0.62078 -1.62954,-2.09512 -1.70714,-3.18148 -2.01752,-1.24155 0.0776,-0.93117 -2.5607,-5.89737 -0.38799,-2.01752 -0.85357,-0.93117 -0.0776,-0.69837 -2.87109,-2.5607 -1.24155,-1.47434 0,-0.54318 -1.24156,-1.00876 -3.25907,-0.54318 -3.56947,-0.31039 -1.47434,-1.08636 -2.17272,0.85357 -1.70713,0.69837 -1.08636,1.55194 -0.46558,1.78473 -2.09512,2.94869 -1.16396,1.16395 -1.24155,-0.46558 -0.85356,-0.54318 -0.93117,-0.31039 -1.86233,-1.08635 0,-0.31039 -0.85357,-0.93117 -2.4831,-1.00876 -3.56946,-3.72465 -1.08636,-2.25032 0,-3.87985 -1.55194,-3.10388 -0.23279,-1.31915 -0.77597,-0.46558 -0.54318,-1.00876 -2.40551,-1.00876 -0.62078,-0.77597 -3.41427,-3.80226 -0.62077,-1.55194 -2.25032,-1.08636 -0.69837,-2.09514 -1.24157,-1.39674 -0.93116,-0.23278 -0.31162,-2.24526 3.84089,0.32922 13.9368,1.31686 13.93684,0.76817 1.09739,-11.41284 1.86554,-26.66641 0.76819,-8.99872 0.65843,0.0137 m 47.50879,112.30928 -0.27158,-3.41428 -1.31916,-3.45308 -0.27159,-3.37548 0.73717,-3.95746 1.59075,-3.29788 1.66834,-2.59952 1.51315,-1.70713 0.31039,0.11639 -2.28912,3.18149 -2.09513,3.14269 -0.96997,3.18149 -0.15519,2.48312 0.42678,2.94869 1.24156,3.45308 0.23279,2.48311 0.0776,0.69838 -0.42679,0.11639 z" />
  <path
     inkscape:connector-curvature="0"
     sodipodi:nodetypes="ccccccccccccccccccccccccccccccccccccccccccccccccccccccccccccccccccccccccccccccccccccccccccccccccccccccccccccccccccccccccccccccccccccccccccscc"
     style="fill:#d3d3d3;opacity:0.5"
     id="CA"
     d="m 65.462454,182.58807 1.831235,-0.23453 0.713301,-0.9655 0.35138,-0.93172 -1.524731,-0.0433 -0.5276,-0.84625 0.373543,-0.82304 -0.02215,-2.95241 1.064681,-0.63733 1.294705,-1.23983 0.197318,-2.35939 0.790332,-1.67879 0.932779,-1.00981 1.569054,-0.82304 0.614111,-0.35032 0.362991,-0.71224 -0.4168,-0.42841 -0.461112,-0.72491 -0.449507,-2.56725 -1.393895,-2.51344 0.04658,-1.3374 -1.056398,-1.55908 -7.199499,-11.1501 -9.327803,-13.78277 -10.764954,-15.8562 -6.097179,-9.38156 0.862421,-3.46 3.270009,-12.455359 3.89573,-15.089092 -5.935392,-1.601767 -6.474592,-1.646085 -6.035635,-1.9753 -3.621382,-0.98765 -5.486941,-1.426603 -3.384391,-1.157614 -0.758458,2.267691 -0.0776,3.569463 -2.483104,5.664583 -1.4743438,1.241552 -0.1551941,0.543179 -0.8535672,0.387986 -0.6983733,2.017522 -0.3879851,1.551941 1.3191494,2.017522 0.7759703,2.017523 0.5431792,1.707135 -0.1551941,3.103881 -0.8535673,1.474343 -0.3103881,2.793493 -0.4655821,1.784736 0.8535673,1.86232 1.3191494,2.17272 1.0863585,2.32791 0.620776,1.93993 -0.155194,1.55194 -0.155194,0.23279 0,1.00876 2.715896,3.02628 -0.232791,1.16396 -0.310388,1.08636 -0.310388,0.93116 0.0776,3.95745 1.008761,1.78473 0.931164,1.24155 1.31915,0.2328 0.465582,1.31914 -0.543179,1.70714 -1.008762,0.77597 -0.543179,0 -0.387985,1.86233 0.232791,1.39674 1.551941,2.09512 0.77597,2.56071 0.698373,2.25031 0.620776,1.47434 1.629538,2.7935 0.698373,1.24155 0.232791,1.39675 0.77597,0.46558 0,1.16395 -0.387985,0.93117 -0.853567,3.41427 -0.232791,0.93116 1.163955,1.31915 2.017523,0.23279 2.172717,0.85357 1.862328,1.00876 1.396747,0 1.396746,1.47434 1.241552,2.32791 0.54318,1.08636 1.862328,1.00876 2.327911,0.38799 0.698373,1.00876 0.310388,1.55194 -0.698373,0.31039 0.155194,0.46558 1.551942,0.38799 1.319149,0.0776 1.396746,2.25032 1.862331,2.01752 0.387985,1.08636 1.241552,2.01752 0.155194,1.55194 0,4.50063 0.232791,0.85357 4.811016,0.69837 9.466837,1.31915 6.675618,0.46785 z m -42.214904,-23.864 0.620779,0.73717 -0.0776,0.62078 -1.551946,-0.0388 -0.271591,-0.58198 -0.310389,-0.69838 1.590744,-0.0388 z m 0.931168,0 0.581979,-0.31039 1.707141,1.00876 1.474349,0.58198 -0.426785,0.31039 -2.172725,-0.11639 -0.775973,-0.77598 -0.387986,-0.69837 z m 9.932454,9.50566 0.853567,1.12516 0.38799,0.46559 0.737175,0.27159 0.271587,-0.69838 -0.465582,-0.85357 -1.280354,-0.96996 -0.504383,0.0776 0,0.58198 z m -0.698378,4.15146 0.853572,1.51315 0.58198,0.93117 -0.698378,0.11639 -0.620776,-0.58198 c 0,0 -0.349189,-0.69837 -0.349189,-0.89237 0,-0.19399 0,-1.04756 0,-1.04756 l 0.232791,-0.0388 z" />
  <path
     inkscape:connector-curvature="0"
     sodipodi:nodetypes="ccccccccccccccccccccccccccccccccccccccccccccccccccc"
     style="fill:#d3d3d3;opacity:0.5"
     id="AZ"
     d="m 65.945174,182.94655 -1.260965,1.036 -0.155194,0.69837 0.232791,0.46558 9.078852,5.12141 5.819777,3.64706 7.061329,4.11264 8.07009,4.81101 5.897376,1.16396 12.06141,1.29836 1.2148,-6.00334 1.80128,-13.07661 3.34313,-25.38296 2.04348,-14.86353 -11.80642,-1.7658 -13.05892,-2.19478 -16.045992,-3.03249 -1.402513,8.68408 -0.219476,0.21948 -0.82304,1.262 -1.207127,-0.0549 -0.603563,-1.31687 -1.316865,-0.16461 -0.438958,-0.54869 -0.438954,0 -0.438958,0.27435 -0.932778,0.49382 -0.05487,3.34704 -0.109743,0.82304 -0.274344,6.03563 -0.713301,1.04252 -0.274349,1.59121 1.316865,2.35939 0.603564,2.79834 0.384086,0.49383 0.493825,0.27434 -0.05487,1.09739 -0.768169,0.65843 -1.646085,0.82304 -0.932778,0.93279 -0.713302,1.75581 -0.274348,2.35939 -1.371737,1.31687 -0.98765,0.32922 -0.05487,2.79834 -0.219482,0.82304 0.219482,0.38408 1.755818,0.27435 -0.274348,1.31687 -0.713302,1.04251 -1.81069,0.43896 z" />
  <path
     inkscape:connector-curvature="0"
     sodipodi:nodetypes="ccccccccccccccccccccccccccccccccccccc"
     style="fill:#d3d3d3;opacity:0.5"
     id="NV"
     d="m 67.342392,82.180822 10.07049,2.165386 4.663902,0.932784 4.44442,0.877906 3.175036,0.783996 -0.268016,2.815225 -1.700952,8.317994 -1.964746,9.590537 -0.932779,4.66496 -1.042521,6.3754 -1.514188,7.87904 -1.690398,7.52872 -0.944826,4.88657 -1.183473,8.04994 -0.219477,0.5276 -0.514926,1.18497 -0.899008,-0.0549 -0.526538,-1.31686 -1.316865,-0.24164 -0.670041,-0.47166 -0.978159,0.15405 -0.438958,0.35138 -0.62466,0.64788 -0.208924,3.34704 -0.263805,0.82304 -0.197312,5.80455 -0.634607,0.82279 -0.900682,-1.08553 -6.968412,-10.91902 -9.327803,-13.93682 -10.919011,-16.24135 -5.94312,-8.91938 0.785392,-3.15189 3.347038,-12.455362 3.78599,-15.046969 16.13161,3.908471 6.584329,1.426604" />
  <path
     inkscape:connector-curvature="0"
     sodipodi:nodetypes="ccccccccccccccccccccccccccc"
     style="fill:#d3d3d3;opacity:0.5"
     id="UT"
     d="m 121.25252,145.41371 -11.82858,-1.66719 -12.750806,-2.34883 -16.236838,-2.88958 0.762576,-4.39534 1.536342,-7.29763 1.591213,-7.95607 1.042522,-6.52946 0.932778,-4.27981 1.81069,-9.82163 1.700951,-8.39502 0.53498,-2.674885 6.104222,1.083672 5.76129,0.98765 4.93824,0.877911 4.00547,0.658435 1.76533,0.23 -0.71271,5.102602 -1.10957,6.322875 3.74769,0.44562 7.87513,0.8663 3.94126,0.4107 -1.02263,10.54491 -1.53634,10.83144 -1.80128,13.35657 -0.79975,5.33175 -0.25218,1.20501 z" />
  <path
     inkscape:connector-curvature="0"
     sodipodi:nodetypes="ccccccccccccccc"
     style="fill:#d3d3d3;opacity:0.5"
     id="CO"
     d="m 181.56459,120.20857 0.69114,-10.21521 -15.40563,-1.47092 -11.74222,-1.29578 -17.88728,-1.97529 -9.93137,-1.20711 -1.26201,10.64468 -1.53634,10.75441 -1.80128,13.4336 -0.72272,5.33175 -0.12029,1.32636 16.28461,1.82124 18.11554,2.04795 15.34109,1.51962 7.97194,0.40624" />
  <path
     inkscape:connector-curvature="0"
     sodipodi:nodetypes="ccccccccccccccccccccc"
     style="fill:#d3d3d3;opacity:0.5"
     id="NM"
     d="m 135.53426,203.84795 -0.3122,-2.93909 4.14901,0.25219 14.16789,1.47091 13.62872,0.69115 0.94333,-10.71958 1.78852,-26.82047 0.5371,-9.30683 0.96655,0.16777 -0.007,-5.31599 -15.45769,-1.15347 -17.73039,-2.12498 -16.54313,-1.9753 -2.01606,14.76377 -3.34313,25.53702 -1.80128,12.92255 -0.9837,6.38848 7.42112,0.9548 0.62077,-4.81102 7.9925,1.24155 5.97894,0.77654 z" />
  <path
     inkscape:connector-curvature="0"
     sodipodi:nodetypes="cccccccccccccccccccccccccccccccccccccccccccccccccccccccccc"
     style="fill:#d3d3d3;opacity:0.5"
     id="OR"
     d="m 67.173407,81.755739 2.062874,-8.592337 2.239095,-8.581789 0.504378,-2.030172 1.130096,-2.699149 -0.295445,-0.558183 -1.207131,-0.02215 -0.61517,-0.801938 0.219477,-0.702754 0.241636,-1.558501 2.13991,-2.633735 0.877912,-0.527595 0.548691,-0.548691 0.713302,-1.7115 1.942587,-2.721314 1.711505,-1.853951 0.109739,-1.656633 -1.569054,-1.184968 -0.580267,-2.16482 -6.35438,-1.797385 -7.242765,-1.700952 -7.407369,0.05487 -0.219477,-0.65843 -2.633735,0.98765 -2.139905,-0.274349 -1.15226,-0.768173 -0.603563,0.32922 -2.249643,-0.109743 -0.82304,-0.65843 -2.523997,-0.98765 -0.384087,0.05487 -2.085038,-0.713306 -0.93278,0.877911 -2.96295,-0.164605 -2.853207,-1.9753 0.329215,-0.384086 0.109738,-3.731123 -1.097388,-1.865557 -1.9753,-0.274348 -0.329215,-1.207127 -1.129887,-0.223951 -2.783293,0.988216 -1.086358,3.103881 -1.55194,4.811015 -1.551941,3.103881 -2.405508,6.750942 -3.103881,6.51815 -3.879851,6.052568 -0.931164,1.396746 -0.387985,4.112642 -0.620777,2.87109 1.299933,1.693165 3.230333,1.080588 5.56397,1.58066 3.775439,1.218737 5.958607,1.744213 6.397563,1.723115 6.320535,1.711495" />
  <path
     inkscape:connector-curvature="0"
     sodipodi:nodetypes="cccccccccccccccccccc"
     style="fill:#d3d3d3;opacity:0.5"
     id="ND"
     d="m 226.05315,58.227209 -0.17515,-3.598163 -0.95494,-3.511642 -0.87791,-6.551622 -0.21948,-4.718773 -0.95494,-1.492028 -0.76818,-2.56831 0,-4.93825 0.32922,-1.865562 -1.01537,-2.639525 -13.64328,-0.270733 -8.92365,-0.310388 -12.72592,-0.620777 -11.97424,-0.904257 -0.60515,6.830718 -0.65843,7.24277 -1.08408,11.974847 -0.23336,5.289704 27.27174,1.806791 27.21312,0.8452 z" />
  <path
     inkscape:connector-curvature="0"
     sodipodi:nodetypes="cccccccccccccccccccccccccccccccccccccccccc"
     style="fill:#d3d3d3;opacity:0.5"
     id="SD"
     d="m 226.76921,94.473179 -0.45778,-0.518815 -0.72994,-1.740811 0.87791,-1.776924 0.50437,-2.666443 -1.23983,-0.98765 -0.14245,-1.316865 0.2849,-1.438219 1.03197,-0.385144 0.14244,-2.752964 -0.0327,-14.441211 -0.29651,-1.426603 -1.9753,-1.723111 -0.47167,-0.954943 0,-0.92223 0.91062,-0.614111 0.73547,-0.889523 0.0876,-1.305259 -27.54341,-0.768168 -26.96361,-1.865562 -0.36802,2.534093 -0.77425,7.616755 -0.6457,8.614497 -0.76817,11.806423 7.69333,0.493825 9.42593,0.548692 8.63667,0.625722 11.41284,0.625723 5.15773,-0.373534 1.37279,1.097389 2.07343,1.426608 0.47166,0.361922 1.6999,-0.427347 1.94259,-0.142446 1.31687,-0.03273 1.49414,0.581409 2.18317,0.691142 1.50362,0.8452 0.29652,0.92223 0.43895,0.910619 0.33871,-0.231088 0.37523,-4.97e-4 z" />
  <path
     inkscape:connector-curvature="0"
     sodipodi:nodetypes="ccccccccccccccccccccccccccccccccccccc"
     style="fill:#d3d3d3;opacity:0.5"
     id="NE"
     d="m 232.26395,115.50141 0.65844,1.28415 0.0443,1.02036 1.1301,1.78854 1.30526,1.51312 -2.42375,0 -20.87163,-0.45057 -19.57769,-0.42734 -10.17195,-0.46111 0.51493,-10.23737 -16.02187,-1.31687 2.08503,-21.124728 7.46225,0.493825 9.65701,0.548692 8.55964,0.548697 11.41284,0.548691 5.15773,-0.219476 0.98765,1.097388 2.30451,1.426608 0.5487,0.438953 2.08504,-0.658435 1.86556,-0.219476 1.31686,-0.109739 0.87791,0.658435 2.41426,0.768174 1.4266,0.768168 0.21948,0.768173 0.43896,0.98765 0.87791,0 0.38303,0.02215 0.47166,2.501832 1.31687,3.852468 0.59301,2.22749 1.02036,1.83285 0.25218,2.36994 0.69115,2.05232 0.2638,3.10541" />
  <path
     inkscape:connector-curvature="0"
     sodipodi:nodetypes="cccccccccccccccccccccccccccccccccccccccccccccccccccccccccccccc"
     style="fill:#d3d3d3;opacity:0.5"
     id="IA"
     d="m 271.7915,93.727994 0.0819,0.932376 1.09738,0.547088 0.54789,0.603156 0.16501,0.605574 1.86556,1.537152 0.32922,1.042919 -0.38368,1.373751 -0.71451,1.70135 -0.38369,1.31606 -1.04292,0.76897 -0.82344,0.27475 -2.63293,0.7129 -0.32922,1.09579 -0.38368,1.09658 0.27475,0.65844 0.82344,0.82264 -9.9e-4,1.75742 -1.04132,0.76817 -0.22027,0.71371 0,1.20793 -0.71451,0.21948 -0.82265,0.65763 -0.21867,0.7129 0.21867,0.82425 -0.65963,0.57813 -1.10101,-1.29184 -0.7121,-1.26079 -4.00345,0.38368 -4.88218,0.27395 -12.01761,0.33002 -6.25672,0.10974 -4.49929,0.10974 -0.63158,0.0582 -0.79423,-2.14645 -0.10974,-3.18243 -0.76817,-1.9753 -0.32921,-2.52399 -1.09739,-1.75583 -0.43896,-2.30451 -1.31687,-3.621388 -0.54869,-2.578863 -0.65843,-1.042517 -0.76818,-1.316865 0.87792,-2.085038 0.65843,-2.743473 -1.31686,-0.98765 -0.21949,-1.316865 0.43896,-1.207132 0.82305,0 5.5418,0 23.81334,-0.329215 9.54086,-0.329215 0.88835,1.318469 0.87952,1.258383 0.21867,0.386098 -0.87872,1.319273 0.21868,2.026557 1.20713,1.865561 1.425,0.875498 1.15426,0.110543 0.631,1.044533 z" />
  <path
     inkscape:connector-curvature="0"
     sodipodi:nodetypes="ccccccccccccccccccccccccccccccccccccccccccccccccccccc"
     style="fill:#d3d3d3;opacity:0.5"
     id="MS"
     d="m 299.61485,221.09175 -0.12204,0.60295 -2.48311,0 -0.69837,-0.38798 -1.00876,-0.1552 -3.25908,0.93117 -0.85357,-0.38799 -1.24155,2.01752 -0.52922,0.37345 -0.53944,-1.19423 -0.54869,-1.86556 -1.64608,-1.53635 0.54869,-3.62138 -0.32922,-0.43895 -0.87791,0.10973 -3.9506,0.32922 -11.63232,0.32922 -0.21947,-0.76817 0.32921,-3.84086 1.64609,-2.96295 2.52399,-4.38956 -0.43895,-0.98765 0.54869,0 0.32922,-1.53634 -1.0974,-0.87791 0.10975,-0.87791 -0.98765,-2.19478 -0.13718,-2.56515 0.65843,-1.27571 -0.19204,-2.08504 -0.65843,-1.42661 0.65843,-0.65843 -0.65843,-0.98765 0.21948,-0.87791 0.43895,-2.96295 1.42661,-1.31686 -0.32922,-0.98765 1.75582,-2.524 1.31687,-0.43895 0,-1.20713 -0.32922,-0.65844 1.31687,-2.52399 1.31686,-0.54869 0.0516,-1.6378 4.16422,-0.0371 11.56198,-0.93116 2.19868,-0.10974 0.004,3.05843 0.0776,7.9925 -0.38799,14.89865 -0.0776,6.75095 1.31916,9.00127 0.7125,7.38974 z" />
  <path
     inkscape:connector-curvature="0"
     sodipodi:nodetypes="ccccccccccccccccccccccccccccccccccccccccccccccccccc"
     style="fill:#d3d3d3;opacity:0.5"
     id="IN"
     d="m 296.66845,141.35684 0.0313,-1.37211 0.23279,-2.17273 1.08636,-1.39674 0.85357,-1.86234 1.24155,-2.01752 -0.23279,-2.7935 -0.85356,-1.31915 -0.1552,-1.55194 0.38799,-2.63831 -0.23279,-3.33667 -0.62079,-7.68212 -0.62077,-7.37173 -0.46583,-5.6256 1.47411,0.42696 0.69838,0.46558 0.54318,-0.15519 1.00876,-0.93116 1.35819,-0.776159 2.44455,-0.07778 10.55321,-1.086364 2.67635,-0.255918 0.72151,7.658981 2.04065,17.68394 0.28726,2.77037 -0.17832,1.08636 0.58943,0.86178 0.0463,0.65883 -1.21022,0.76776 -1.69893,0.74463 -1.53702,0.26413 -0.28726,2.33613 -2.19585,1.58999 -1.34228,1.92501 0.15519,1.14082 -0.27904,0.73642 -1.59671,0 -0.76105,-0.77597 -1.19679,0.60586 -1.28782,0.72151 0.0776,1.46613 -0.57302,0.12386 -0.22458,-0.48871 -1.04011,-0.72151 -1.56015,0.64391 -0.74463,1.443 -0.69016,-0.38798 -0.69838,-0.76776 -2.14288,0.23279 -2.68456,0.46558 -1.39675,0.74463 z" />
  <path
     inkscape:connector-curvature="0"
     sodipodi:nodetypes="ccccccccccccccccccccccccccccccccccccccccccccccccccccccccccccccccccccccccccccccccccccc"
     style="fill:#d3d3d3;opacity:0.5"
     id="IL"
     d="m 296.37298,141.71499 0,-1.73026 0.12386,-2.33613 1.14082,-1.50568 0.85358,-1.80787 1.24155,-1.85412 -0.17832,-2.52115 -0.9625,-1.70043 -0.0462,-1.60641 0.33352,-2.52937 -0.3962,-3.44562 -0.51184,-7.57317 -0.62078,-7.20833 -0.44269,-5.58681 -0.1308,-0.442269 -0.38799,-1.241552 -0.62078,-1.784732 -0.77597,-0.853567 -0.69837,-1.241552 -0.11211,-2.634699 -4.75328,0.629875 -13.05893,0.82304 -4.17008,-0.205755 0.10974,1.138538 1.09739,0.329215 0.43895,0.548692 0.21948,0.877911 1.86556,1.646085 0.32922,1.097389 -0.32922,1.646081 -0.87791,1.75582 -0.32922,1.20713 -1.09738,0.87791 -0.87792,0.32922 -2.52399,0.65843 -0.32922,0.87791 -0.32921,0.98765 0.32921,0.65844 0.87791,0.76817 -0.10973,1.97529 -0.87792,0.76818 -0.32921,0.76817 0,1.31687 -0.87791,0.21947 -0.76818,0.5487 -0.10973,0.65843 0.10973,0.98765 -0.82304,0.631 -0.49382,1.3443 0.21948,1.75582 1.09738,3.51165 3.51165,3.62138 2.63373,1.75582 -0.10974,2.08504 0.43896,0.65844 3.07269,0.21947 1.31686,0.65844 -0.32921,1.75582 -1.09739,2.85321 -0.32922,1.53634 1.09739,1.86556 3.07269,2.524 2.19478,0.32921 0.98764,2.41426 0.98765,1.53634 -0.43895,1.42661 0.76817,1.9753 0.87792,0.98765 0.93328,-0.38031 0.32962,-1.03832 0.97742,-0.69017 1.55344,-0.52826 1.48255,0.56631 1.38034,0.51184 0.37977,-0.10072 -0.0313,-0.59615 -0.51185,-1.32736 0.20967,-1.14083 1.09457,-0.75285 1.13261,-0.47379 0.55811,-0.20145 -0.27905,-0.6357 -0.36486,-1.0401 0.59765,-0.60586 0.46558,-1.30273 z" />
  <path
     inkscape:connector-curvature="0"
     sodipodi:nodetypes="cccccccccccccccccccccccccccccccccccccccccccccccccccccccccccccccccccccccccccccccccccccccccccc"
     style="fill:#d3d3d3;opacity:0.5"
     id="MN"
     d="m 226.32856,58.612353 -0.21948,-4.060338 -0.87791,-3.511642 -0.87791,-6.474591 -0.21948,-4.718773 -0.87791,-1.646085 -0.76817,-2.414253 0,-4.93825 0.32921,-1.865562 -0.87404,-2.6168 14.46356,0.01694 0.15519,-3.957449 0.31039,-0.0776 1.08636,0.232791 0.93116,0.387986 0.38799,2.638298 0.69837,2.948687 0.77597,0.775971 2.32791,0 0.15519,0.698373 3.02629,0.155194 0,1.008761 2.32791,0 0.15519,-0.620776 0.54318,-0.543179 1.08636,-0.310388 0.62078,0.465582 1.39674,0 1.86233,1.241552 2.5607,1.163956 1.16396,0.232791 0.23279,-0.465582 0.69837,-0.232791 0.23279,1.396746 1.24156,0.620776 0.23279,-0.232791 0.62077,0.0776 0,1.008761 1.24156,0.465583 1.47434,0 0.77597,-0.387985 1.55194,-1.551941 1.24155,-0.232791 0.38799,0.853567 0.23279,0.620776 0.46558,0 0.46558,-0.387985 4.26784,-0.155194 0.85357,1.474344 0.31038,0 0.34254,-0.520454 2.13115,-0.17792 -0.2938,1.094141 -1.89059,0.88182 -4.43797,1.949341 -2.29188,0.963311 -1.47434,1.241552 -1.16396,1.707135 -1.08636,1.862329 -0.85356,0.387985 -2.17272,2.405508 -0.62078,0.0776 -1.84398,1.408273 -1.3519,1.517236 -0.10973,1.425799 0.10893,3.733532 -0.76656,0.768173 -2.524,1.974491 -0.87951,2.744277 1.20873,1.751001 0.22028,1.209541 -0.55111,1.427407 -0.10893,1.756623 0.21948,3.400299 1.64447,1.971288 1.42822,0 1.20471,1.100596 1.53715,0.655222 1.75663,2.416667 3.4019,2.41104 0.87871,0.990058 0.11215,2.640966 -9.88212,0.329215 -28.9194,0.220281 -0.1622,-17.124886 -0.21948,-1.426603 -1.9753,-1.646085 -0.54869,-0.877912 0,-0.768173 0.98765,-0.768168 0.65843,-0.658435 0.10974,-1.536347 z" />
  <path
     inkscape:connector-curvature="0"
     sodipodi:nodetypes="cccccccccccccccccccccccccccccccccccccccccccccccccccccccccccccccccccccccccccccccccccccccccccc"
     style="fill:#d3d3d3;opacity:0.5"
     id="WI"
     d="m 294.03824,91.593304 0.17797,-1.425561 -0.77597,-2.172716 -0.31039,-2.948687 -0.54318,-1.163956 0.46558,-1.474343 0.38799,-1.396747 0.69837,-1.241552 -0.31039,-1.629538 -0.31038,-1.707134 0.23279,-0.853567 0.93116,-1.163956 0.0776,-1.319149 -0.38799,-0.620776 0.31039,-1.241553 0.23279,-1.55194 1.31915,-2.715896 1.39675,-3.259075 0.0776,-1.086359 -0.15519,-0.465582 -0.38798,0.232791 -2.01753,3.026284 -1.31915,1.939926 -0.93116,0.853567 -0.38799,1.086359 -0.69837,0.387985 -0.54318,0.931164 -0.69837,-0.155194 -0.0776,-0.853567 0.62078,-1.163956 1.00876,-2.250313 0.85357,-0.775971 0.52863,-1.099946 -0.78271,-0.434523 -0.65844,-0.658435 -0.76817,-4.93825 -1.75582,-0.548692 -0.65844,-1.097388 -6.03563,-1.31687 -1.20713,-0.548691 -3.9506,-1.097389 -3.9506,-0.548696 -2.00134,-2.594309 -0.25413,0.605337 -0.54318,-0.0776 -0.31039,-0.543179 -1.31915,-0.387986 -0.54318,0.0776 -0.85356,0.465583 -0.46558,-0.310389 0.31038,-0.931164 0.93117,-1.474343 0.54318,-0.543179 -0.93117,-0.698374 -1.00876,0.387985 -1.39675,0.931165 -3.56946,1.55194 -1.39674,0.310388 -1.39675,-0.232791 -0.47123,-0.421561 -1.01602,1.360885 -0.10974,1.316865 0,4.060338 -0.54869,0.768174 -2.52399,1.865556 -1.09739,2.853212 0.21947,0.109738 1.20713,0.98765 0.32922,1.536347 -0.87792,1.536341 0,1.865562 0.21949,3.182426 1.4266,1.426609 1.64608,0 0.87792,1.536341 1.64608,0.219477 1.86556,2.743473 3.4019,1.9753 0.98765,1.316865 0.43896,3.566518 0.32921,1.591209 1.09739,0.768173 0.10974,0.658435 -0.98765,1.64608 0.10974,1.536346 1.20713,1.865562 1.20713,0.548692 1.4266,0.219476 0.64432,0.662458 4.40328,-10e-6 12.51223,-0.713699 4.8277,-0.65763 z" />
  <path
     inkscape:connector-curvature="0"
     sodipodi:nodetypes="ccccccccccccccccccccccccccccccccccccccccccccccccccccccccccccccccc"
     style="fill:#d3d3d3;opacity:0.5"
     id="MO"
     d="m 266.60513,116.71949 -1.20953,-1.48188 -0.5487,-1.09739 -3.73112,0.32922 -4.71877,0.21947 -12.18102,0.43896 -6.47459,0.10974 -3.78597,0.0549 -1.09741,0.0549 0.60357,1.20713 -0.10974,1.09738 1.20713,1.86557 1.48147,1.9753 1.48148,1.31686 1.09738,0.10974 0.65843,0.43896 0,1.4266 -0.8779,0.76817 -0.21948,1.09739 0.98765,1.64609 1.20713,1.4266 1.20712,0.87791 0.65843,5.59668 -0.32921,16.95466 0.10974,2.24965 0.21947,2.58408 11.24784,-0.0561 11.13889,-0.32921 9.98624,-0.38449 5.59427,-0.11054 1.04132,1.64448 -0.32841,1.5876 -1.48189,1.15346 -0.27474,0.88192 2.58167,0.21948 1.86958,-0.32922 0.82425,-2.63694 0.31268,-2.81126 1.11312,-0.97192 0.82184,-0.7137 0.98765,-0.49423 0.0553,-1.37294 0.27556,-0.82344 -0.49503,-0.83918 -1.31767,0.0694 -1.04131,-1.25999 -0.65924,-2.02977 0.38448,-1.20873 -0.93318,-1.64528 -0.87871,-2.19639 -2.30371,-0.38368 -3.34503,-2.6874 -0.82505,-1.97449 0.38369,-1.53635 0.98845,-2.90768 0.22028,-1.37454 -0.93559,-0.49503 -3.29056,-0.38288 -0.49343,-0.82184 -0.0537,-2.03057 -2.63373,-1.64689 -3.34825,-3.73032 -1.09738,-3.51164 -0.11054,-2.02816 0.38448,-1.09819 z" />
  <path
     inkscape:connector-curvature="0"
     sodipodi:nodetypes="ccccccccccccccccccccccccccccccccccccccccccccc"
     style="fill:#d3d3d3;opacity:0.5"
     id="AR"
     d="m 283.48365,162.52394 -1.8467,0.45008 -2.96295,-0.21948 0.32921,-1.42661 1.53635,-1.31686 0.21948,-1.09739 -0.87791,-1.42661 -5.26747,0.21948 -9.98624,0.43896 -11.19336,0.32921 -11.19337,0.21948 0.76818,3.29217 -1e-5,3.9506 0.65844,5.26752 0.10974,18.16173 1.09739,0.93277 1.4266,-0.65843 1.31687,0.5487 0.20657,4.95518 10.98519,-0.0682 9.05466,-0.38448 4.85835,-0.0948 0.5499,-1.00338 -0.13757,-1.70376 -0.87631,-1.42661 0.76737,-0.7129 -0.76737,-1.20552 0.32842,-1.20472 0.65683,-2.69061 1.20873,-0.99005 -0.32922,-1.09659 1.75582,-2.57846 1.31687,-0.65683 -0.0545,-0.71692 -0.16581,-0.8763 1.37133,-2.6874 1.15346,-0.60316 0.18438,-1.64526 0.84993,-0.59602 0.41111,-2.03245 -0.6439,-1.92501 1.93993,-1.14082 0.26412,-0.96922 0.59293,-2.04843 0.3845,-1.56259 z" />
  <path
     inkscape:connector-curvature="0"
     sodipodi:nodetypes="ccccccccccccccccccccccccccccccccccccccccccccccccccccccccccccccccc"
     style="fill:#d3d3d3;opacity:0.5"
     id="OK"
     d="m 179.99132,151.78065 -5.13031,-0.21945 -3.08641,-0.23319 0.12346,0.096 -0.33765,5.00261 10.54338,0.6753 15.38667,0.62573 -1.12061,11.72095 -0.21948,8.55963 0.10974,0.76817 2.08504,1.75583 0.98765,0.54869 0.32922,-0.10974 0.32921,-0.98765 0.65844,0.87791 0.98765,0 0,-0.65843 1.31686,0.65843 -0.21948,1.86556 1.9753,0.10974 1.20713,0.5487 1.9753,0.32921 1.20713,0.87792 1.09739,-0.98765 1.64608,0.32921 1.20713,1.64609 0.43895,0 0,1.09738 1.09739,0.32922 1.09739,-1.09739 0.87791,0.32922 1.20713,0 0.43895,1.20713 2.30452,0.8779 0.65843,-0.32921 0.87792,-1.9753 0.54869,0 0.54869,0.98765 1.9753,0.32921 1.75582,0.65844 1.42661,0.43896 0.87791,-0.43896 0.32922,-1.20713 2.08504,0 0.98765,0.43896 1.31686,-0.98765 0.5487,0 0.32921,0.76817 1.9753,0 0.76818,-0.98765 0.87791,0.21948 0.98765,1.20713 1.53634,0.8779 1.53635,0.43896 0.93172,0.53709 -0.18677,-17.86416 -0.65844,-5.26752 -0.077,-4.25872 -0.69115,-3.13811 -0.37354,-3.44623 -0.0327,-1.83178 -5.82568,0.15299 -22.27683,-0.21947 -21.61867,-0.98766 -11.65978,-0.65843 z" />
  <path
     inkscape:connector-curvature="0"
     sodipodi:nodetypes="ccccccccccccccccccccc"
     style="fill:#d3d3d3;opacity:0.5"
     id="KS"
     d="m 241.4493,153.00888 -6.05676,0.0981 -22.12277,-0.21947 -21.38758,-0.98766 -11.82228,-0.60356 1.98902,-31.06559 10.48006,0.38408 19.42364,0.65843 21.17974,0.21949 2.4459,0 1.55851,1.54795 1.32848,0.10974 0.42734,0.51598 0,0.96443 -0.87791,0.76818 -0.21948,1.25144 1.06468,1.72312 1.20713,1.50363 1.20713,0.95494 0.50437,5.36559 -0.32922,16.81115 z" />
  <path
     inkscape:connector-curvature="0"
     sodipodi:nodetypes="cccccccccccccccccccccccccccccccccccccccccccccccccscccccccccccccccccccccccccccccscccccccccccccccccccccccccccc"
     style="fill:#d3d3d3;opacity:0.5"
     id="LA"
     d="m 288.88364,223.98382 -0.49414,-1.25579 -0.54869,-1.48428 -1.59161,-1.69975 0.43975,-3.24011 -0.0569,-0.54789 -0.60558,0.16421 -3.9506,0.43815 -12.01359,0.22029 -0.32841,-1.14945 0.43815,-4.05874 1.59162,-2.85401 2.41505,-4.17168 -0.27555,-1.15106 0.60316,-0.3268 0.22029,-0.9372 -1.0974,-0.98685 -0.0537,-0.93237 -0.87871,-2.08585 -0.21908,-2.8516 -4.66792,0.0545 -9.21807,0.43895 -10.65838,0.0137 0.0137,4.59531 0.32921,4.4993 0.32922,1.86556 1.20713,1.9753 0.43895,2.41426 2.08504,2.63373 0.10974,1.53634 0.32922,0.32922 -0.32922,4.06033 -1.42661,2.41426 0.76818,0.98765 -0.32922,1.20712 -0.32922,3.51165 -0.65843,1.53634 0.0588,1.7359 2.24951,-0.72967 3.87985,-0.1552 4.96621,1.70714 3.10388,0.54318 1.78473,-0.69838 1.55194,0.54318 1.55194,0.46558 0.38799,-1.00876 -1.55194,-0.54318 -1.24156,0.23279 -1.31915,-0.77597 c 0,0 0.0776,-0.62077 0.38799,-0.69837 0.31039,-0.0776 1.47434,-0.46558 1.47434,-0.46558 l 0.85357,0.69837 0.85357,-0.46558 1.55194,0.31039 0.69837,1.16395 0.1552,1.08636 2.17271,0.1552 0.85357,0.85356 -0.38799,0.77597 -0.62077,0.38799 0.77597,0.77597 4.03504,1.70713 1.70714,-0.62077 0.46558,-1.16396 1.24155,-0.31039 0.85357,-0.69837 0.62078,0.46558 0.38798,1.39675 -1.08636,0.38798 0.31039,0.31039 1.62954,-0.62077 1.08636,-1.62954 0.38798,-0.23279 -1.00876,-0.1552 0.38799,-0.77597 -0.0776,-0.69837 1.00876,-0.23279 0.54318,-0.62078 0.31039,0.38799 c 0,0 -0.0776,1.47434 0.31039,1.47434 0.38798,0 2.01752,0.31039 2.01752,0.31039 l 1.93992,0.93116 0.46559,0.69838 1.39674,0 0.54318,0.46558 1.08636,-1.47434 0,-0.69838 -0.62078,0 -1.62953,-1.31915 -2.7935,-0.38798 -1.55194,-1.08636 0.54318,-1.31915 1.08636,0.15519 0.0776,-0.31038 -0.85357,-0.46559 0,-0.23279 1.55194,0 0.85357,-1.47434 -0.62078,-0.93116 -0.15519,-1.31915 -0.69838,0.0776 -0.93116,1.00876 -0.31039,1.24156 -1.47434,-0.31039 -0.46558,-0.85357 0.85356,-0.93116 0.96996,-0.85357 -0.17236,-0.34918 z" />
  <path
     inkscape:connector-curvature="0"
     sodipodi:nodetypes="ccccccccccccccccccccccccccccccccccccccccccccccccccccccccccccccccccccccccccccccccccc"
     style="fill:#d3d3d3;stroke:#000000;stroke-width:1.03462696000000000;stroke-opacity:1;opacity:1"
     id="VA"
     d="m 397.7018,126.18428 -0.0691,-0.93457 3.09764,-1.22394 -0.36979,1.54456 -1.40158,1.81397 -0.20068,2.2012 0.22164,1.62741 -0.87743,2.38952 -1.03885,0.91974 -0.70576,-2.22759 0.21403,-2.61557 0.76176,-2.00787 0.3681,-1.48686 z m 1.09417,13.58466 -27.9236,6.0362 -17.96495,2.53396 -3.2056,-0.18009 -1.24092,0.92467 -3.52278,0.10592 -4.02342,0.46929 -4.28458,0.45682 4.07073,-2.37518 -0.006,-0.99597 0.72963,-1.03014 5.06581,-5.52069 1.89442,2.14919 1.81585,0.4627 1.22086,-0.54735 1.07387,-0.62936 1.21757,0.6449 1.8788,-0.68533 0.90083,-2.18705 1.24844,0.25922 1.37052,-1.023 0.86365,0.23692 1.35706,-1.76475 0.16716,-0.9999 -0.46256,-0.61227 0.48133,-0.89598 2.53165,-5.89303 0.29605,-2.75284 0.58987,-0.2513 1.0457,1.17258 1.88921,-0.14456 0.92602,-3.63535 1.34111,-0.26921 0.50388,-1.31571 1.23832,-1.1265 0.60862,-1.12427 0.72185,-1.60943 0.0408,-2.43242 4.71432,1.83495 c 0.32681,0.16341 0.31493,-2.29631 0.31493,-2.29631 l 1.94415,0.66113 -0.22176,1.26182 3.91493,1.41104 0.62058,0.86131 -0.41661,1.76743 -0.60628,0.63639 -0.24284,0.8381 0.23707,1.15331 0.94031,0.61362 1.88069,0.6937 1.41536,0.46462 2.3311,0.45221 1.03311,1.00246 1.53141,0.19322 0.41668,0.57601 -0.21096,2.25124 0.65987,0.52922 -0.22989,0.92659 0.59011,0.37909 -0.10646,0.66461 -1.29311,-0.0456 0.0427,0.77544 1.09488,0.74058 0.0583,0.67771 0.85109,0.85698 0.23606,1.21159 -1.22546,0.66303 0.75467,0.71726 2.78449,-0.8092 1.73166,2.88573 z" />
  <g
     transform="matrix(0.48,0,0,0.48,-8.5694368,-66.385427)"
     id="Frames"
     style="fill:none;stroke:#a9a9ff;stroke-width:2.08333324999999990;stroke-opacity:0;opacity:0.5">
    <path
       d="m 229.21212,633.12334 0.46875,55.31291 35.00027,35.31277 M 18.429285,564.99783 l 143.438575,0.3125 67.65676,68.28176 85.15689,0.15625 53.7504,53.4379 -0.3125,36.25028"
       style="fill:none;stroke:#a9a9ff;stroke-width:3.90625000000000000;stroke-opacity:0;stroke-dasharray:none"
       id="Inset_border"
       inkscape:connector-curvature="0" />
  </g>
  <path
     d="m 384.66995,118.79139 -0.51697,-0.7856 -0.48666,-0.40442 0.52764,-0.77578 1.07177,0.72528 -0.59578,1.24052 z"
     id="path1361"
     style="fill:#d3d3d3;opacity:0.5"
     sodipodi:nodetypes="cccccc"
     inkscape:connector-curvature="0" />
  <g
     transform="matrix(0.48,0,0,0.48,-8.8460568,-65.488355)"
     id="g2102"
     style="fill:none;stroke:#a9a9a9;stroke-width:2.08333324999999990;stroke-opacity:1;opacity:0.5">
    <path
       d="m 229.21212,623.12334 0.46875,55.31291 35.00027,45.31277 M 18.429285,554.99783 l 143.438575,0.3125 67.65676,68.28176 85.15689,0.15625 53.7504,53.4379 -0.3125,46.25028"
       style="fill:none;stroke:#a9a9a9;stroke-width:3.90625000000000000;stroke-opacity:1;stroke-dasharray:none"
       id="path2104"
       sodipodi:nodetypes="ccccccccc"
       inkscape:connector-curvature="0" />
  </g>
</svg>
