<?xml version="1.0" encoding="utf-8"?>
<!-- Generator: Adobe Illustrator 12.0.1, SVG Export Plug-In  -->
<!DOCTYPE svg PUBLIC "-//W3C//DTD SVG 1.1//EN" "http://www.w3.org/Graphics/SVG/1.1/DTD/svg11.dtd" [
	<!ENTITY ns_flows "http://ns.adobe.com/Flows/1.0/">
	<!ENTITY ns_svg "http://www.w3.org/2000/svg">
	<!ENTITY ns_xlink "http://www.w3.org/1999/xlink">
]>
<svg  version="1.1" xmlns="&ns_svg;" xmlns:xlink="&ns_xlink;" xmlns:a="http://ns.adobe.com/AdobeSVGViewerExtensions/3.0/"
	 width="252" height="72" viewBox="0 0 252 72" enable-background="new 0 0 252 72" xml:space="preserve">
<defs>
</defs>
<polygon fill="#0557A4" points="49.63,11.046 59.329,11.046 74.126,37.452 88.212,11.046 96.706,11.046 76.603,47.575 
	70.728,47.575 "/>
<path fill="#0557A4" d="M119.009,40.71c10.758,0,16.139-2.691,16.139-11.752c0-7.436-4.035-11.4-12.035-11.4h-15.078V40.71H119.009z
	 M99.538,11.046h23.506c13.662,0,20.881,6.728,20.881,18.051c0,6.868-2.971,12.531-8.068,15.644
	c-3.541,2.199-8.496,2.834-15.012,2.834H99.538V11.046z"/>
<path fill="#0557A4" d="M185.337,40.71V17.557h-28.035V40.71H185.337z M157.872,11.046h26.896c6.871,0,9.064,1.769,9.064,8.638
	v19.254c0,6.867-2.193,8.637-9.064,8.637h-26.896c-6.867,0-9.061-1.77-9.061-8.637V19.684
	C148.812,12.815,151.005,11.046,157.872,11.046z"/>
<polygon fill="#0557A4" points="221.651,47.575 213.155,47.575 213.155,17.557 196.382,17.557 196.382,11.046 238.499,11.046 
	238.499,17.557 221.651,17.557 "/>
<path fill="#F47838" d="M39.046,13.398c-0.23-0.433-5.697-10.552-16.24-6.408c-0.311,0.121-6.543,2.674-9.305,10.626
	c1.525-0.64,3.313-1.04,5.26-0.761c3.902,0.56,7.213,3.614,9.844,9.055c0.01,0.022,19.311,33.601,19.311,33.601l0.033,0.055
	l0.021,0.047c0.205,0.4,5.139,9.717,16.986,5.121c0.619-0.316,5.281-2.906,7.74-9.514c-1.354,0.432-2.924,0.65-4.615,0.377
	c-3.803-0.617-7.061-3.486-9.684-8.527L39.063,13.434L39.046,13.398z"/>
<polygon fill="#0557A4" points="78.419,61.138 77.372,61.138 75.169,55.288 76.106,55.288 77.909,60.401 77.925,60.401 
	79.778,55.288 80.657,55.288 "/>
<path fill="#0557A4" d="M81.245,56.864h0.787v4.273h-0.787V56.864z M82.083,55.909h-0.889v-0.887h0.889V55.909z"/>
<path fill="#0557A4" d="M83.39,56.864h0.736v0.662h0.018c0.209-0.443,0.662-0.762,1.113-0.762c0.236,0,0.354,0.023,0.52,0.059v0.703
	c-0.143-0.059-0.301-0.074-0.436-0.074c-0.703,0-1.164,0.67-1.164,1.742v1.943H83.39V56.864z"/>
<path fill="#0557A4" d="M89.556,59.052c0-0.889-0.41-1.65-1.248-1.65c-0.797,0-1.189,0.863-1.189,1.592
	c0,0.803,0.451,1.508,1.189,1.508C89.044,60.501,89.556,59.847,89.556,59.052z M90.343,60.952c0,1.299-0.67,2.045-2.203,2.045
	c-0.453,0-0.846-0.059-1.533-0.295l0.084-0.727c0.604,0.275,0.963,0.387,1.541,0.387c0.83,0,1.324-0.563,1.324-1.469v-0.418h-0.018
	c-0.334,0.443-0.887,0.662-1.432,0.662c-1.225,0-1.826-0.998-1.826-2.104c0-1.098,0.619-2.27,1.91-2.27
	c0.754,0,1.172,0.275,1.406,0.738h0.018v-0.639h0.729V60.952z"/>
<path fill="#0557A4" d="M91.7,56.864h0.787v4.273H91.7V56.864z M92.538,55.909h-0.889v-0.887h0.889V55.909z"/>
<path fill="#0557A4" d="M93.845,56.864h0.762v0.68h0.018c0.234-0.486,0.805-0.779,1.398-0.779c1.105,0,1.602,0.688,1.602,1.834
	v2.539h-0.789v-2.213c0-0.996-0.217-1.482-0.904-1.523c-0.896,0-1.299,0.721-1.299,1.758v1.979h-0.787V56.864z"/>
<path fill="#0557A4" d="M98.979,61.138h0.789v-4.273h-0.789V61.138z M99.817,55.022h-0.887v0.887h0.887V55.022z"/>
<path fill="#0557A4" d="M103.663,59.101c-0.168,0-0.334-0.016-0.502-0.016c-0.428,0-1.482,0.066-1.482,0.82
	c0,0.453,0.436,0.695,0.795,0.695c0.779,0,1.189-0.484,1.189-1.121V59.101z M101.325,57.167c0.395-0.234,0.863-0.402,1.408-0.402
	c1.223,0,1.719,0.602,1.719,1.766v1.77c0,0.486,0.016,0.711,0.033,0.838h-0.738v-0.553h-0.016c-0.186,0.258-0.604,0.652-1.324,0.652
	c-0.922,0-1.566-0.4-1.566-1.332c0-1.072,1.172-1.406,1.984-1.406c0.311,0,0.529,0,0.838,0.016c0-0.736-0.268-1.113-1.055-1.113
	c-0.443,0-0.922,0.168-1.24,0.436L101.325,57.167z"/>
<path fill="#0557A4" d="M108.808,60.401h0.879c1.441,0,2.238-0.697,2.238-2.203c0-1.367-0.932-2.172-2.137-2.172h-0.98V60.401z
	 M107.97,55.288h1.727c1.734,0,3.115,1.074,3.115,2.875c0,1.961-1.189,2.975-3.115,2.975h-1.727V55.288z"/>
<path fill="#0557A4" d="M116.675,58.591c0-0.654-0.387-1.189-1.064-1.189c-0.77,0-1.09,0.637-1.148,1.189H116.675z M117.187,60.96
	c-0.303,0.109-0.646,0.277-1.35,0.277c-1.516,0-2.213-0.922-2.213-2.313c0-1.266,0.797-2.16,2.002-2.16
	c1.426,0,1.887,1.039,1.887,2.412h-3.051c0,0.846,0.662,1.424,1.408,1.424c0.52,0,1.123-0.268,1.316-0.426V60.96z"/>
<path fill="#0557A4" d="M120.536,57.401c-0.854,0-1.266,0.813-1.266,1.607c0,0.713,0.369,1.592,1.258,1.592
	c0.846,0,1.197-0.945,1.18-1.617C121.726,58.214,121.392,57.401,120.536,57.401z M118.483,56.864h0.754v0.604h0.018
	c0.209-0.318,0.695-0.703,1.449-0.703c1.24,0,1.844,1.014,1.844,2.16c0,1.174-0.545,2.313-1.836,2.313
	c-0.754,0-1.182-0.293-1.424-0.686h-0.018v2.346h-0.787V56.864z"/>
<path fill="#0557A4" d="M126.058,59.101c-0.168,0-0.336-0.016-0.502-0.016c-0.428,0-1.484,0.066-1.484,0.82
	c0,0.453,0.438,0.695,0.797,0.695c0.779,0,1.189-0.484,1.189-1.121V59.101z M123.72,57.167c0.395-0.234,0.863-0.402,1.408-0.402
	c1.223,0,1.717,0.602,1.717,1.766v1.77c0,0.486,0.018,0.711,0.033,0.838h-0.736v-0.553h-0.018c-0.184,0.258-0.604,0.652-1.322,0.652
	c-0.922,0-1.568-0.4-1.568-1.332c0-1.072,1.174-1.406,1.986-1.406c0.311,0,0.527,0,0.838,0.016c0-0.736-0.268-1.113-1.057-1.113
	c-0.443,0-0.922,0.168-1.238,0.436L123.72,57.167z"/>
<path fill="#0557A4" d="M128.093,56.864h0.738v0.662h0.016c0.211-0.443,0.662-0.762,1.113-0.762c0.236,0,0.354,0.023,0.521,0.059
	v0.703c-0.143-0.059-0.303-0.074-0.438-0.074c-0.701,0-1.164,0.67-1.164,1.742v1.943h-0.787V56.864z"/>
<path fill="#0557A4" d="M133.538,57.503h-1.131v2.336c0,0.494,0.301,0.762,0.662,0.762c0.244,0,0.418-0.074,0.537-0.148v0.668
	c-0.176,0.051-0.42,0.117-0.67,0.117c-0.814,0-1.316-0.385-1.316-1.238v-2.496h-0.965v-0.639h0.965v-0.988l0.787-0.252v1.24h1.131
	V57.503z"/>
<path fill="#0557A4" d="M134.435,56.864h0.738v0.619h0.016c0.303-0.492,0.729-0.719,1.357-0.719c0.496,0,0.99,0.25,1.215,0.83
	c0.293-0.611,0.939-0.83,1.324-0.83c1.09,0,1.482,0.703,1.482,1.633v2.74h-0.787v-2.547c0-0.529-0.127-1.189-0.764-1.189
	c-0.803,0-1.121,0.787-1.121,1.582v2.154h-0.789v-2.547c0-0.529-0.125-1.189-0.762-1.189c-0.803,0-1.121,0.787-1.121,1.582v2.154
	h-0.789V56.864z"/>
<path fill="#0557A4" d="M144.571,58.591c0-0.654-0.385-1.189-1.064-1.189c-0.77,0-1.088,0.637-1.146,1.189H144.571z M145.083,60.96
	c-0.301,0.109-0.645,0.277-1.35,0.277c-1.516,0-2.211-0.922-2.211-2.313c0-1.266,0.795-2.16,2.002-2.16
	c1.426,0,1.885,1.039,1.885,2.412h-3.049c0,0.846,0.662,1.424,1.408,1.424c0.52,0,1.121-0.268,1.314-0.426V60.96z"/>
<path fill="#0557A4" d="M146.382,56.864h0.762v0.68h0.018c0.234-0.486,0.805-0.779,1.398-0.779c1.105,0,1.602,0.688,1.602,1.834
	v2.539h-0.789v-2.213c0-0.996-0.217-1.482-0.904-1.523c-0.896,0-1.299,0.721-1.299,1.758v1.979h-0.787V56.864z"/>
<path fill="#0557A4" d="M153.687,57.503h-1.131v2.336c0,0.494,0.301,0.762,0.662,0.762c0.242,0,0.42-0.074,0.537-0.148v0.668
	c-0.178,0.051-0.418,0.117-0.672,0.117c-0.813,0-1.314-0.385-1.314-1.238v-2.496h-0.965v-0.639h0.965v-0.988l0.787-0.252v1.24h1.131
	V57.503z"/>
<path fill="#0557A4" d="M158.731,60.601c0.922,0,1.33-0.836,1.33-1.6c0-0.813-0.494-1.6-1.33-1.6c-0.848,0-1.342,0.787-1.342,1.6
	C157.39,59.765,157.8,60.601,158.731,60.601z M158.731,56.765c1.297,0,2.17,0.938,2.17,2.236c0,1.225-0.889,2.236-2.17,2.236
	c-1.291,0-2.18-1.012-2.18-2.236C156.552,57.702,157.423,56.765,158.731,56.765z"/>
<path fill="#0557A4" d="M162.382,57.503h-1.004v-0.639h1.004v-0.393c0-1.039,0.27-1.719,1.434-1.719
	c0.201,0,0.369,0.025,0.529,0.051l-0.035,0.637c-0.092-0.035-0.242-0.051-0.375-0.051c-0.68,0-0.764,0.436-0.764,1.016v0.459h1.131
	v0.639h-1.131v3.635h-0.789V57.503z"/>
<polygon fill="#0557A4" points="168.532,56.026 166.714,56.026 166.714,55.288 171.188,55.288 171.188,56.026 169.37,56.026 
	169.37,61.138 168.532,61.138 "/>
<path fill="#0557A4" d="M171.247,56.864h0.736v0.662h0.018c0.211-0.443,0.662-0.762,1.113-0.762c0.236,0,0.354,0.023,0.52,0.059
	v0.703c-0.141-0.059-0.301-0.074-0.434-0.074c-0.705,0-1.166,0.67-1.166,1.742v1.943h-0.787V56.864z"/>
<path fill="#0557A4" d="M176.96,59.101c-0.166,0-0.334-0.016-0.502-0.016c-0.428,0-1.482,0.066-1.482,0.82
	c0,0.453,0.436,0.695,0.797,0.695c0.779,0,1.188-0.484,1.188-1.121V59.101z M174.622,57.167c0.395-0.234,0.863-0.402,1.408-0.402
	c1.223,0,1.719,0.602,1.719,1.766v1.77c0,0.486,0.016,0.711,0.031,0.838h-0.736v-0.553h-0.016c-0.186,0.258-0.605,0.652-1.324,0.652
	c-0.922,0-1.566-0.4-1.566-1.332c0-1.072,1.172-1.406,1.984-1.406c0.311,0,0.529,0,0.838,0.016c0-0.736-0.268-1.113-1.055-1.113
	c-0.445,0-0.922,0.168-1.24,0.436L174.622,57.167z"/>
<path fill="#0557A4" d="M178.997,56.864h0.762v0.68h0.018c0.234-0.486,0.805-0.779,1.398-0.779c1.105,0,1.602,0.688,1.602,1.834
	v2.539h-0.789v-2.213c0-0.996-0.217-1.482-0.904-1.523c-0.898,0-1.299,0.721-1.299,1.758v1.979h-0.787V56.864z"/>
<path fill="#0557A4" d="M183.712,60.3c0.313,0.201,0.756,0.301,0.98,0.301c0.361,0,0.805-0.148,0.805-0.611
	c0-0.779-1.852-0.713-1.852-1.91c0-0.887,0.662-1.314,1.51-1.314c0.367,0,0.67,0.074,0.979,0.168l-0.068,0.688
	c-0.174-0.111-0.643-0.219-0.828-0.219c-0.4,0-0.754,0.168-0.754,0.52c0,0.871,1.852,0.619,1.852,1.984
	c0,0.914-0.729,1.332-1.49,1.332c-0.402,0-0.813-0.041-1.174-0.234L183.712,60.3z"/>
<path fill="#0557A4" d="M189.261,57.401c-0.855,0-1.266,0.813-1.266,1.607c0,0.713,0.367,1.592,1.256,1.592
	c0.846,0,1.197-0.945,1.182-1.617C190.448,58.214,190.114,57.401,189.261,57.401z M187.206,56.864h0.754v0.604h0.018
	c0.209-0.318,0.695-0.703,1.449-0.703c1.24,0,1.842,1.014,1.842,2.16c0,1.174-0.543,2.313-1.834,2.313
	c-0.754,0-1.18-0.293-1.424-0.686h-0.016v2.346h-0.789V56.864z"/>
<path fill="#0557A4" d="M194.136,60.601c0.92,0,1.332-0.836,1.332-1.6c0-0.813-0.494-1.6-1.332-1.6c-0.848,0-1.342,0.787-1.342,1.6
	C192.794,59.765,193.204,60.601,194.136,60.601z M194.136,56.765c1.297,0,2.17,0.938,2.17,2.236c0,1.225-0.891,2.236-2.17,2.236
	c-1.291,0-2.18-1.012-2.18-2.236C191.956,57.702,192.829,56.765,194.136,56.765z"/>
<path fill="#0557A4" d="M197.276,56.864h0.736v0.662h0.018c0.209-0.443,0.662-0.762,1.115-0.762c0.234,0,0.352,0.023,0.52,0.059
	v0.703c-0.145-0.059-0.303-0.074-0.438-0.074c-0.703,0-1.164,0.67-1.164,1.742v1.943h-0.787V56.864z"/>
<path fill="#0557A4" d="M202.722,57.503h-1.131v2.336c0,0.494,0.303,0.762,0.662,0.762c0.244,0,0.42-0.074,0.537-0.148v0.668
	c-0.176,0.051-0.42,0.117-0.672,0.117c-0.813,0-1.316-0.385-1.316-1.238v-2.496h-0.961v-0.639h0.961v-0.988l0.789-0.252v1.24h1.131
	V57.503z"/>
<path fill="#0557A4" d="M206.165,59.101c-0.168,0-0.336-0.016-0.502-0.016c-0.428,0-1.484,0.066-1.484,0.82
	c0,0.453,0.436,0.695,0.797,0.695c0.779,0,1.189-0.484,1.189-1.121V59.101z M203.829,57.167c0.393-0.234,0.861-0.402,1.406-0.402
	c1.225,0,1.717,0.602,1.717,1.766v1.77c0,0.486,0.018,0.711,0.035,0.838h-0.738v-0.553h-0.018c-0.184,0.258-0.602,0.652-1.324,0.652
	c-0.92,0-1.564-0.4-1.564-1.332c0-1.072,1.172-1.406,1.984-1.406c0.311,0,0.527,0,0.838,0.016c0-0.736-0.268-1.113-1.055-1.113
	c-0.445,0-0.922,0.168-1.24,0.436L203.829,57.167z"/>
<path fill="#0557A4" d="M210.472,57.503h-1.131v2.336c0,0.494,0.301,0.762,0.66,0.762c0.244,0,0.42-0.074,0.539-0.148v0.668
	c-0.178,0.051-0.42,0.117-0.672,0.117c-0.813,0-1.314-0.385-1.314-1.238v-2.496h-0.965v-0.639h0.965v-0.988l0.787-0.252v1.24h1.131
	V57.503z"/>
<path fill="#0557A4" d="M211.476,56.864h0.789v4.273h-0.789V56.864z M212.313,55.909h-0.887v-0.887h0.887V55.909z"/>
<path fill="#0557A4" d="M215.517,60.601c0.92,0,1.33-0.836,1.33-1.6c0-0.813-0.492-1.6-1.33-1.6c-0.848,0-1.342,0.787-1.342,1.6
	C214.175,59.765,214.585,60.601,215.517,60.601z M215.517,56.765c1.297,0,2.168,0.938,2.168,2.236c0,1.225-0.887,2.236-2.168,2.236
	c-1.293,0-2.18-1.012-2.18-2.236C213.337,57.702,214.208,56.765,215.517,56.765z"/>
<path fill="#0557A4" d="M218.657,56.864h0.762v0.68h0.018c0.234-0.486,0.805-0.779,1.398-0.779c1.105,0,1.6,0.688,1.6,1.834v2.539
	h-0.787v-2.213c0-0.996-0.217-1.482-0.904-1.523c-0.896,0-1.299,0.721-1.299,1.758v1.979h-0.787V56.864z"/>
<rect id="_x3C_Slice_x3E__2_" fill="none" width="252" height="72"/>
</svg>
